<?xml version="1.0" encoding="UTF-8" standalone="no"?>
<!-- Created with Inkscape (http://www.inkscape.org/) -->

<svg
   xmlns:dc="http://purl.org/dc/elements/1.1/"
   xmlns:cc="http://creativecommons.org/ns#"
   xmlns:rdf="http://www.w3.org/1999/02/22-rdf-syntax-ns#"
   xmlns:svg="http://www.w3.org/2000/svg"
   xmlns="http://www.w3.org/2000/svg"
   xmlns:sodipodi="http://sodipodi.sourceforge.net/DTD/sodipodi-0.dtd"
   xmlns:inkscape="http://www.inkscape.org/namespaces/inkscape"
   width="352.78268mm"
   height="352.77777mm"
   viewBox="0 0 352.78268 352.77777"
   version="1.1"
   id="svg8"
   inkscape:version="0.92.4 (5da689c313, 2019-01-14)"
   sodipodi:docname="Braxxy_Logo.svg">
  <defs
     id="defs2" />
  <sodipodi:namedview
     id="base"
     pagecolor="#ffffff"
     bordercolor="#666666"
     borderopacity="1.0"
     inkscape:pageopacity="0.0"
     inkscape:pageshadow="2"
     inkscape:zoom="0.49497475"
     inkscape:cx="774.72448"
     inkscape:cy="724.93903"
     inkscape:document-units="mm"
     inkscape:current-layer="layer1"
     showgrid="false"
     inkscape:window-width="1920"
     inkscape:window-height="1017"
     inkscape:window-x="-8"
     inkscape:window-y="-8"
     inkscape:window-maximized="1"
     fit-margin-top="0"
     fit-margin-left="0"
     fit-margin-right="0"
     fit-margin-bottom="0" />
  <metadata
     id="metadata5">
    <rdf:RDF>
      <cc:Work
         rdf:about="">
        <dc:format>image/svg+xml</dc:format>
        <dc:type
           rdf:resource="http://purl.org/dc/dcmitype/StillImage" />
        <dc:title></dc:title>
      </cc:Work>
    </rdf:RDF>
  </metadata>
  <g
     inkscape:label="Layer 1"
     inkscape:groupmode="layer"
     id="layer1"
     transform="translate(52.294435,23.68408)">
    <g
       id="g21"
       transform="translate(19.777944,1.603617)">
      <path
         style="fill:#fefefe;stroke-width:0.35277778"
         d="M -72.067459,151.10119 V -25.287697 H 104.32143 280.71031 V 151.10119 327.49007 H 104.32143 -72.067459 Z"
         id="path37"
         inkscape:connector-curvature="0" />
      <path
         style="fill:#fde79d;stroke-width:0.35277778"
         d="m 88.975593,326.79015 c -16.985025,-0.98738 -38.598195,-6.58378 -57.149999,-14.79812 -37.0576888,-16.40835 -68.785796,-47.16276 -86.45561,-83.8024 -8.080822,-16.75617 -14.00488,-36.16196 -16.155997,-52.92316 -1.715155,-13.36426 -1.715155,-35.31908 0,-48.68334 2.151117,-16.76121 8.075175,-36.166996 16.155997,-52.923164 17.717995,-36.73954 49.3970499,-67.4013244 86.68408,-83.900506 17.541624,-7.762014 38.02061,-13.193502 54.452085,-14.441919 3.104444,-0.235867 11.200694,-0.428849 17.991661,-0.428849 13.92053,0 21.22666,0.445348 28.92778,1.763305 36.42216,6.233227 68.77467,22.62249775 94.67831,47.962542 25.96819,25.403181 42.96043,56.770304 50.07868,92.443591 2.06858,10.36676 2.52773,16.51849 2.52773,33.86667 0,17.34818 -0.45915,23.49991 -2.52773,33.86667 -7.11825,35.67329 -24.11049,67.04041 -50.07868,92.44359 -24.78472,24.24547 -55.21524,40.18638 -89.84802,47.06655 -10.9371,2.17277 -14.82472,2.51361 -30.23029,2.65038 -7.76111,0.0689 -16.333608,-0.004 -19.049997,-0.16184 z"
         id="path35"
         inkscape:connector-curvature="0" />
      <path
         style="fill:#fcd450;stroke-width:0.35277778"
         d="m 93.738093,326.78452 c 0,-0.19403 -0.833438,-0.35297 -1.852083,-0.35321 -2.623894,-7e-4 -10.45924,-0.92153 -16.66875,-1.95916 C 3.2751271,312.45043 -53.646816,257.5489 -68.323599,186.02619 c -1.034335,-5.04051 -2.201951,-12.61386 -2.550883,-16.54544 -0.130865,-1.47452 -0.413133,-2.79422 -0.627262,-2.93267 -0.549788,-0.35546 -0.549788,-30.8911 0,-31.24656 0.214129,-0.13845 0.496397,-1.45815 0.627262,-2.93267 0.348932,-3.93158 1.516548,-11.50493 2.550883,-16.54544 C -56.851148,59.916008 -19.210805,13.104829 32.759619,-9.8881116 49.06674,-17.102767 67.629536,-22.147405 84.389482,-23.919079 c 2.328333,-0.246125 4.346607,-0.615064 4.485051,-0.819865 0.350873,-0.519047 30.895687,-0.519047 31.246567,0 0.13844,0.204801 2.15671,0.57374 4.48505,0.819865 2.32833,0.246125 6.53521,0.837817 9.34861,1.31487 71.99249,12.20736 128.69928,66.961409 143.36447,138.427619 0.9834,4.79233 2.32673,13.36694 2.33044,14.87546 10e-4,0.51741 0.20075,1.00689 0.44328,1.08774 0.3455,0.11516 0.44097,4.25881 0.44097,19.13819 0,14.87938 -0.0955,19.02303 -0.44097,19.13819 -0.24253,0.0808 -0.44201,0.57033 -0.44328,1.08773 -0.004,1.50852 -1.34704,10.08314 -2.33044,14.87547 -2.98532,14.54801 -7.60127,28.1179 -14.22369,41.81452 -24.73519,51.1578 -72.99537,87.21992 -129.31717,96.63144 -6.20951,1.03763 -14.04486,1.95856 -16.66875,1.95916 -1.01865,2.4e-4 -1.85208,0.15918 -1.85208,0.35321 0,0.22747 -3.82176,0.35278 -10.75973,0.35278 -6.937959,0 -10.759717,-0.12531 -10.759717,-0.35278 z"
         id="path33"
         inkscape:connector-curvature="0" />
      <path
         style="fill:#e4b445;stroke-width:0.35277778"
         d="m -37.14246,191.83529 c -2.419766,-0.66884 -2.881806,-1.25918 -2.749329,-3.51274 0.124324,-2.11489 0.751191,-2.40343 2.7639,-1.27223 2.301447,1.29349 6.335429,1.43195 6.335429,0.21747 0,-0.30342 -0.605292,-0.66338 -1.499305,-0.89161 -4.062226,-1.03705 -5.25396,-1.54907 -6.252495,-2.68634 -1.893563,-2.15665 -1.725594,-5.21713 0.383744,-6.99202 1.246339,-1.04872 4.102449,-1.96272 6.109169,-1.95501 1.98514,0.008 5.517659,0.8815 5.893763,1.458 0.171069,0.26222 0.269769,1.26903 0.219329,2.23735 -0.108003,2.07348 -0.643534,2.35051 -2.670824,1.38158 -1.874464,-0.89588 -4.72561,-1.08238 -5.334318,-0.34894 -0.640048,0.77121 -0.474408,0.87886 2.326248,1.51184 2.957601,0.66844 4.866129,1.6005 5.613795,2.74159 1.649035,2.51674 0.513398,6.06003 -2.419685,7.54963 -2.141572,1.08763 -5.932603,1.33172 -8.719421,0.56143 z m 18.464473,0.22376 c -7.058794,-1.8129 -8.308304,-12.68296 -1.868254,-16.25276 2.279262,-1.26342 6.167225,-1.25954 8.632719,0.009 5.7465062,2.9558 5.8164409,12.49087 0.113136,15.42589 -1.779309,0.91566 -5.004344,1.29936 -6.877601,0.81825 z m 3.813585,-4.29737 c 2.34176,-1.25327 2.178688,-7.40524 -0.22533,-8.50059 -2.12507,-0.96824 -4.059453,1.12852 -4.060515,4.40137 -0.0011,3.37854 2.020158,5.31178 4.285845,4.09922 z m 119.772692,4.18301 c -3.74073,-0.99107 -5.280371,-5.47083 -2.86629,-8.3398 l 0.8358,-0.9933 -0.7279,-1.47121 c -0.94137,-1.90266 -0.66842,-3.55916 0.78845,-4.78504 2.14938,-1.80858 6.17968,-2.06483 8.63254,-0.54888 1.50091,0.92761 2.20867,2.89477 1.63431,4.54238 l -0.3804,1.09124 h 1.67498 c 0.92124,0 1.86548,0.1905 2.09831,0.42333 0.58296,0.58296 0.52996,1.98772 -0.15502,4.10863 l -0.57835,1.79077 1.69869,1.53792 c 2.33491,2.11394 2.07602,2.72268 -1.15797,2.72268 -1.49995,0 -2.66965,-0.18745 -3.11464,-0.49914 -0.62263,-0.43611 -0.95552,-0.41529 -2.63614,0.16487 -2.11643,0.73061 -3.68929,0.80056 -5.74637,0.25555 z m 3.29369,-5.03656 c -1.29261,-1.33364 -2.11667,-1.5848 -2.11667,-0.64514 0,0.964 1.09159,1.87986 2.24055,1.87986 h 1.07286 z m 3.40605,-3.94349 c -0.10126,-0.10126 -0.36113,-0.0747 -0.57749,0.059 -0.28236,0.17451 -0.26409,0.39909 0.0647,0.79581 0.41273,0.49796 0.46993,0.49211 0.57748,-0.059 0.0657,-0.33645 0.0365,-0.69457 -0.0647,-0.79582 z m -3.40605,-2.91485 c 0,-0.81774 -0.63328,-1.29254 -1.10063,-0.82519 -0.44285,0.44285 -0.0123,1.50992 0.60921,1.50992 0.27028,0 0.49142,-0.30813 0.49142,-0.68473 z m 56.2117,12.00926 c -7.0588,-1.8129 -8.30831,-12.68296 -1.86826,-16.25276 2.27926,-1.26342 6.16723,-1.25954 8.63272,0.009 5.74651,2.9558 5.81644,12.49087 0.11314,15.42589 -1.77931,0.91566 -5.00435,1.29936 -6.8776,0.81825 z m 3.81358,-4.29737 c 2.34176,-1.25327 2.17869,-7.40524 -0.22533,-8.50059 -2.12507,-0.96824 -4.05945,1.12852 -4.06051,4.40137 -0.001,3.37854 2.02015,5.31178 4.28584,4.09922 z m 8.59,4.377 c -0.9577,-0.26725 -1.22296,-0.76409 -1.22932,-2.3026 -0.007,-1.62715 0.57478,-1.98838 2.84914,-1.76984 2.63489,0.25318 2.7899,-0.01 2.7899,-4.72908 v -4.01375 h -1.34056 c -1.67294,0 -2.18722,-0.49769 -2.18722,-2.11667 0,-0.6985 0.1905,-1.4605 0.42334,-1.69333 0.64395,-0.64395 7.47829,-0.57499 8.02268,0.081 0.29822,0.35934 0.38669,2.32954 0.30778,6.85454 -0.12296,7.05066 -0.28114,7.57008 -2.74471,9.01266 -1.16146,0.68011 -5.39099,1.0957 -6.89103,0.67712 z m 46.15753,-0.0796 c -7.0588,-1.8129 -8.30831,-12.68296 -1.86826,-16.25276 2.27926,-1.26342 6.16723,-1.25954 8.63272,0.009 5.74651,2.9558 5.81644,12.49087 0.11314,15.42589 -1.77931,0.91566 -5.00435,1.29936 -6.8776,0.81825 z m 3.81358,-4.29737 c 2.34176,-1.25327 2.17869,-7.40524 -0.22533,-8.50059 -2.12507,-0.96824 -4.05945,1.12852 -4.06051,4.40137 -0.001,3.37854 2.02015,5.31178 4.28584,4.09922 z m 10.88305,4.07361 c -2.41976,-0.66884 -2.8818,-1.25918 -2.74933,-3.51274 0.12433,-2.11489 0.7512,-2.40343 2.7639,-1.27223 2.30145,1.29349 6.33543,1.43195 6.33543,0.21747 0,-0.30342 -0.60529,-0.66338 -1.4993,-0.89161 -4.06223,-1.03705 -5.25396,-1.54907 -6.2525,-2.68634 -1.89356,-2.15665 -1.72559,-5.21713 0.38375,-6.99202 1.24634,-1.04872 4.10245,-1.96272 6.10917,-1.95501 1.98514,0.008 5.51765,0.8815 5.89376,1.458 0.17107,0.26222 0.26977,1.26903 0.21933,2.23735 -0.10801,2.07348 -0.64354,2.35051 -2.67083,1.38158 -1.87446,-0.89588 -4.72561,-1.08238 -5.33431,-0.34894 -0.64005,0.77121 -0.47441,0.87886 2.32624,1.51184 2.9576,0.66844 4.86613,1.6005 5.6138,2.74159 1.64903,2.51674 0.5134,6.06003 -2.41969,7.54963 -2.14157,1.08763 -5.9326,1.33172 -8.71942,0.56143 z M -5.3219049,191.60008 c -0.6396249,-0.63963 -0.5966954,-15.57418 0.046302,-16.10782 0.6891478,-0.57194 31.1065999,-0.51125 31.5717229,0.063 0.185664,0.22922 0.698592,2.04412 1.139839,4.03313 0.441251,1.989 0.863332,3.5553 0.937962,3.48068 0.07463,-0.0746 0.589249,-1.7629 1.1436,-3.75172 0.554348,-1.98881 1.22107,-3.75112 1.481603,-3.91625 0.734833,-0.46573 4.044135,-0.36806 4.458818,0.13161 0.20204,0.24344 0.76344,2.00248 1.24755,3.90898 0.484109,1.90649 0.954228,3.54038 1.044709,3.63086 0.09048,0.0905 0.530172,-1.44825 0.977095,-3.4194 0.44692,-1.97115 1.040261,-3.81159 1.318532,-4.08986 0.34914,-0.34913 1.121752,-0.47354 2.492858,-0.40138 1.826214,0.0961 1.994613,0.17588 2.082186,0.9865 0.131075,1.21333 -3.675577,15.22585 -4.232243,15.57914 -0.587752,0.37302 -4.198133,0.36851 -4.788535,-0.006 -0.252359,-0.16008 -0.84698,-1.70546 -1.321382,-3.43419 -0.474401,-1.72872 -0.960642,-3.38126 -1.080534,-3.6723 -0.122583,-0.29758 -0.657292,1.07893 -1.221764,3.14522 -0.552083,2.02092 -1.208744,3.80442 -1.459248,3.96335 -0.588373,0.37328 -4.199371,0.37567 -4.786347,0.003 -0.247682,-0.15718 -1.284263,-3.40294 -2.303516,-7.21279 -1.518264,-5.67512 -1.915047,-6.78605 -2.195502,-6.14701 -0.292322,0.66609 -0.66433,0.79535 -2.547179,0.88504 l -2.204861,0.10502 v 5.90984 c 0,4.12616 -0.127769,6.0376 -0.423333,6.33316 -0.232833,0.23284 -1.232958,0.42334 -2.2225,0.42334 -0.989542,0 -1.989667,-0.1905 -2.2225,-0.42334 -0.29549,-0.29549 -0.423333,-2.20405 -0.423333,-6.31989 v -5.89657 l -2.3812503,-0.1183 c -1.3096875,-0.0651 -3.9290624,-0.0637 -5.8208332,0.003 -3.36439224,0.1186 -3.43958329,0.13981 -3.43958329,0.97014 0,0.82847 0.0703898,0.84888 2.92805549,0.84888 3.3197341,0 3.7747221,0.25513 3.7747221,2.11667 0,1.86153 -0.454988,2.11666 -3.7747221,2.11666 h -2.92805549 v 2.92806 c 0,1.807 -0.16208022,3.09014 -0.42333332,3.35139 -0.23283329,0.23283 -1.23295829,0.42333 -2.22249999,0.42333 -0.9895416,0 -1.9896666,-0.1905 -2.2224999,-0.42333 z m 50.6267709,0.20307 c -0.137559,-0.13756 -0.250105,-0.52172 -0.250105,-0.85369 0,-0.78639 4.838019,-14.03115 5.503142,-15.06563 0.442634,-0.68844 0.812419,-0.79375 2.787135,-0.79375 1.974716,0 2.344501,0.10531 2.787135,0.79375 0.853105,1.32685 5.538128,14.48787 5.428851,15.25057 -0.09046,0.63141 -0.3634,0.71262 -2.395153,0.71262 h -2.293055 l -0.696426,-1.49931 -0.696425,-1.4993 h -2.134927 -2.134926 l -0.696426,1.4993 c -0.696263,1.49896 -0.696919,1.49934 -2.82757,1.60242 -1.172129,0.0567 -2.243691,-0.009 -2.38125,-0.14698 z m 8.516479,-8.24641 c -0.202918,-0.58208 -0.417255,-1.05833 -0.476307,-1.05833 -0.05905,0 -0.273388,0.47625 -0.476306,1.05833 -0.343059,0.98411 -0.309651,1.05834 0.476306,1.05834 0.785957,0 0.819365,-0.0742 0.476307,-1.05834 z m 9.648415,8.04334 c -0.599722,-0.59973 -0.599722,-15.48695 0,-16.08667 0.284293,-0.28429 1.819515,-0.41825 4.674306,-0.40785 5.952415,0.0217 7.892538,0.8093 8.709384,3.5357 0.536332,1.79011 0.126655,3.63289 -1.124422,5.05779 -0.572516,0.65206 -1.040935,1.26269 -1.040935,1.35697 0,0.0943 0.9525,1.40398 2.116667,2.91044 1.164167,1.50647 2.116667,2.93921 2.116667,3.18386 0,0.64522 -0.840596,0.87309 -3.220699,0.87309 -2.372519,0 -2.697649,-0.23747 -5.099089,-3.72425 -1.80588,-2.62206 -2.263546,-2.52527 -2.263546,0.47869 0,1.39544 -0.17708,2.57597 -0.423333,2.82223 -0.232833,0.23283 -1.232958,0.42333 -2.2225,0.42333 -0.989541,0 -1.989666,-0.1905 -2.2225,-0.42333 z m 7.62,-9.87778 c 0.604816,-0.60482 0.522972,-1.93239 -0.134687,-2.18476 -0.30691,-0.11777 -1.021285,-0.21413 -1.5875,-0.21413 -0.965874,0 -1.02948,0.0872 -1.02948,1.41111 0,1.36123 0.04116,1.41111 1.164167,1.41111 0.640292,0 1.354667,-0.1905 1.5875,-0.42333 z m 8.960555,9.87778 c -0.599722,-0.59973 -0.599722,-15.48695 0,-16.08667 0.291878,-0.29188 2.07747,-0.42333 5.750278,-0.42333 3.672808,0 5.4584,0.13145 5.750278,0.42333 0.547677,0.54768 0.547677,2.83899 0,3.38667 -0.26512,0.26512 -1.583581,0.42333 -3.527778,0.42333 -2.869258,0 -3.104444,0.0534 -3.104444,0.70556 0,0.64888 0.235186,0.70555 2.928055,0.70555 3.319734,0 3.774722,0.25513 3.774722,2.11667 0,1.86153 -0.454988,2.11666 -3.774722,2.11666 h -2.928055 v 1.41111 1.41112 h 3.104444 c 3.50871,0 3.951111,0.237 3.951111,2.11666 0,0.6985 -0.1905,1.4605 -0.423333,1.69334 -0.291878,0.29187 -2.07747,0.42333 -5.750278,0.42333 -3.672808,0 -5.4584,-0.13146 -5.750278,-0.42333 z m 47.624995,0 c -0.30322,-0.30322 -0.42333,-2.59312 -0.42333,-8.0707 0,-6.30795 0.0911,-7.72296 0.52009,-8.07899 0.36877,-0.30605 1.8314,-0.3956 5.02708,-0.30778 3.72465,0.10236 4.71492,0.24633 5.70484,0.82941 1.98583,1.1697 2.68435,2.41045 2.67111,4.74458 -0.0212,3.74202 -2.36756,5.98062 -6.60298,6.29984 l -2.02847,0.15288 v 2.00371 c 0,1.10204 -0.1905,2.19421 -0.42334,2.42705 -0.23283,0.23283 -1.23295,0.42333 -2.2225,0.42333 -0.98954,0 -1.98966,-0.1905 -2.2225,-0.42333 z m 7.48897,-9.30326 c 1.2981,-1.2981 0.33154,-2.97341 -1.7155,-2.97341 -0.85097,0 -0.90513,0.10554 -0.90513,1.76389 0,1.71513 0.0286,1.76389 1.03313,1.76389 0.56823,0 1.2826,-0.24947 1.5875,-0.55437 z m 8.03326,9.30326 c -0.30313,-0.30313 -0.42334,-2.58704 -0.42334,-8.04334 0,-5.45629 0.12021,-7.7402 0.42334,-8.04333 0.28429,-0.28429 1.81951,-0.41825 4.6743,-0.40785 5.95242,0.0217 7.89254,0.8093 8.70939,3.5357 0.53633,1.79011 0.12665,3.63289 -1.12443,5.05779 -0.57251,0.65206 -1.04093,1.26269 -1.04093,1.35697 0,0.0943 0.9525,1.40398 2.11667,2.91044 1.16416,1.50647 2.11666,2.93921 2.11666,3.18386 0,0.64522 -0.84059,0.87309 -3.2207,0.87309 -2.37251,0 -2.69765,-0.23747 -5.09908,-3.72425 -1.80588,-2.62206 -2.26355,-2.52527 -2.26355,0.47869 0,1.39544 -0.17708,2.57597 -0.42333,2.82223 -0.23284,0.23283 -1.23296,0.42333 -2.2225,0.42333 -0.98955,0 -1.98967,-0.1905 -2.2225,-0.42333 z m 7.62,-9.87778 c 0.60481,-0.60482 0.52297,-1.93239 -0.13469,-2.18476 -0.30691,-0.11777 -1.02129,-0.21413 -1.5875,-0.21413 -0.96587,0 -1.02948,0.0872 -1.02948,1.41111 0,1.36123 0.0412,1.41111 1.16417,1.41111 0.64029,0 1.35466,-0.1905 1.5875,-0.42333 z m 38.59388,9.87778 c -0.30312,-0.30313 -0.42333,-2.58704 -0.42333,-8.04334 0,-5.45629 0.12021,-7.7402 0.42333,-8.04333 0.29188,-0.29188 2.07747,-0.42333 5.75028,-0.42333 3.67281,0 5.4584,0.13145 5.75028,0.42333 0.23283,0.23283 0.42333,0.99483 0.42333,1.69333 0,1.87967 -0.4424,2.11667 -3.95111,2.11667 -2.86926,0 -3.10444,0.0534 -3.10444,0.70556 0,0.64888 0.23518,0.70555 2.92805,0.70555 3.31974,0 3.77472,0.25513 3.77472,2.11667 0,1.86153 -0.45498,2.11666 -3.77472,2.11666 h -2.92805 v 1.41111 1.41112 h 3.10444 c 3.50871,0 3.95111,0.237 3.95111,2.11666 0,0.6985 -0.1905,1.4605 -0.42333,1.69334 -0.29188,0.29187 -2.07747,0.42333 -5.75028,0.42333 -3.67281,0 -5.4584,-0.13146 -5.75028,-0.42333 z m 17.63889,0 c -0.29566,-0.29567 -0.42333,-2.21075 -0.42333,-6.35 v -5.92667 h -2.04611 c -2.37981,0 -2.89278,-0.37535 -2.89278,-2.11667 0,-0.6985 0.1905,-1.4605 0.42333,-1.69333 0.59732,-0.59731 13.72547,-0.59731 14.32278,0 0.23283,0.23283 0.42333,0.99483 0.42333,1.69333 0,1.74132 -0.51297,2.11667 -2.89277,2.11667 h -2.04611 v 5.92667 c 0,4.13925 -0.12767,6.05433 -0.42334,6.35 -0.23283,0.23283 -1.23296,0.42333 -2.2225,0.42333 -0.98954,0 -1.98966,-0.1905 -2.2225,-0.42333 z M -24.166327,152.29337 c -0.339951,-0.10165 -0.69488,-0.67391 -0.808771,-1.30402 -0.318618,-1.76279 -0.03178,-47.06695 0.300076,-47.39571 0.4884,-0.48385 13.570998,-0.30804 15.7547838,0.21171 5.8612686,1.39502 9.58634787,5.82181 9.62252171,11.43516 0.0231422,3.59362 -0.81010476,5.81368 -3.11749361,8.30593 l -1.8940427,2.04579 1.7572496,0.82305 c 5.0336625,2.35765 7.9240942,8.07387 6.9961547,13.83587 -0.4864912,3.02082 -1.3721609,4.86013 -3.3734657,7.00579 -2.0857986,2.23624 -3.6236627,3.23487 -6.5235736,4.23613 -1.9910389,0.68746 -3.0915327,0.78227 -10.1701282,0.87615 -4.365625,0.0579 -8.210116,0.0238 -8.543311,-0.0759 z m 18.4210888,-7.05044 c 2.5571872,-1.44415 3.9577326,-3.62315 4.1643016,-6.4789 0.1904577,-2.63309 -0.3894701,-4.34392 -2.1024002,-6.20223 -2.2532446,-2.44448 -4.1928697,-3.0714 -10.0875962,-3.26046 l -5.027083,-0.16124 v 8.72445 8.72446 l 5.55625,-0.12516 c 5.4595536,-0.12299 5.5900179,-0.14423 7.4965278,-1.22092 z m -5.0196468,-22.54905 c 3.440169,-1.02162 5.3499385,-3.57592 5.3646775,-7.17522 0.00995,-2.42708 -0.9993065,-4.27258 -2.9442585,-5.38384 -1.2781915,-0.73031 -2.011659,-0.84841 -5.955633,-0.95896 l -4.497917,-0.12608 v 7.09098 7.09098 h 3.110971 c 1.760527,0 3.897189,-0.23348 4.92216,-0.53786 z m 28.579113,29.59565 c -0.341366,-0.0999 -0.694404,-0.66745 -0.808771,-1.30018 -0.319194,-1.76597 -0.03147,-47.06737 0.301021,-47.39571 0.436803,-0.43135 17.332357,-0.26011 19.810783,0.20079 7.343267,1.36558 11.944621,7.74729 10.773628,14.94215 -1.073344,6.59489 -5.501509,10.3998 -12.961574,11.13726 -1.323138,0.1308 -2.353937,0.39521 -2.299504,0.58985 0.05426,0.19403 3.467389,4.70728 7.584722,10.02946 4.117333,5.32217 7.686174,10.0385 7.930755,10.48073 0.386274,0.69843 0.354563,0.85229 -0.241392,1.17124 -0.734363,0.39302 -4.291785,0.49104 -5.552009,0.15298 -0.465621,-0.12491 -4.034081,-4.45056 -9.163318,-11.10769 -6.580763,-8.54102 -8.571442,-10.90311 -9.188739,-10.90311 h -0.788018 l -0.102831,10.73081 c -0.05656,5.90195 -0.225234,10.85299 -0.37484,11.00233 -0.321451,0.32088 -4.046725,0.52463 -4.919913,0.26909 z m 18.959875,-28.50937 c 5.920617,-1.76627 7.018627,-10.16347 1.755415,-13.4248 l -1.707959,-1.05834 -6.819512,-0.12065 -6.819508,-0.12067 v 7.59786 7.59786 l 1.675694,0.15702 c 3.036461,0.28454 10.105461,-0.0882 11.91587,-0.62828 z m 20.798021,28.24203 c -0.637671,-0.46628 -0.121994,-1.65422 10.604891,-24.42986 10.492031,-22.27699 11.336306,-23.93975 12.155523,-23.93975 0.819217,0 1.663491,1.66276 12.155522,23.93975 10.72689,22.77564 11.24256,23.96358 10.60489,24.42986 -0.87644,0.64087 -4.398933,0.63918 -5.315125,-0.002 -0.386852,-0.27097 -2.272651,-3.84284 -4.190665,-7.9375 l -3.487296,-7.44492 h -9.767326 -9.767327 l -3.487296,7.44484 c -1.918014,4.09466 -3.803812,7.66654 -4.190665,7.9375 -0.916192,0.64173 -4.438689,0.64342 -5.315126,0.002 z m 29.465587,-21.6467 c 0.0037,-0.41047 -6.50603,-14.17978 -6.705173,-14.18267 -0.189315,-0.003 -6.702778,13.8016 -6.702778,14.20557 0,0.13293 3.01625,0.24169 6.702778,0.24169 3.686527,0 6.703853,-0.11907 6.705173,-0.26459 z m 23.898299,21.89363 c -0.33955,-0.0887 -0.61736,-0.40035 -0.61736,-0.69249 0,-0.29213 3.33375,-5.83168 7.40833,-12.31011 4.07458,-6.47843 7.40833,-11.95616 7.40833,-12.17274 0,-0.21659 -3.09562,-5.36562 -6.87916,-11.4423 -3.78354,-6.07667 -6.87917,-11.28351 -6.87917,-11.57075 0,-0.28724 0.35719,-0.61797 0.79375,-0.73497 1.19645,-0.32063 3.98903,-0.26424 4.94678,0.0999 0.58991,0.22428 2.48319,2.95905 6.22783,8.99583 2.95914,4.77047 5.48526,8.67104 5.61359,8.66793 0.12833,-0.003 2.68098,-3.90658 5.67255,-8.67436 3.75126,-5.97852 5.70162,-8.76846 6.28477,-8.99017 0.95606,-0.36349 3.74934,-0.41949 4.94476,-0.0991 0.43656,0.117 0.79375,0.44584 0.79375,0.73076 0,0.28492 -3.18968,5.58651 -7.08817,11.78132 l -7.08816,11.26326 7.44094,11.95809 c 4.09252,6.57695 7.44094,12.19208 7.44094,12.47807 0,0.28598 -0.35718,0.6157 -0.79375,0.73269 -1.19929,0.32139 -3.98991,0.2639 -4.95239,-0.10203 -0.60174,-0.22878 -2.55785,-3.08448 -6.63754,-9.69006 -3.18141,-5.15112 -5.89144,-9.37078 -6.02231,-9.37701 -0.13086,-0.006 -2.8981,4.21043 -6.14942,9.37035 -4.06881,6.45729 -6.17362,9.48134 -6.7524,9.70139 -0.85322,0.3244 -3.98854,0.37129 -5.11649,0.0765 z m 44.45,0 c -0.33955,-0.0887 -0.61736,-0.40035 -0.61736,-0.69249 0,-0.29213 3.33375,-5.83168 7.40833,-12.31011 4.07458,-6.47843 7.40833,-11.95616 7.40833,-12.17274 0,-0.21659 -3.09562,-5.36562 -6.87916,-11.4423 -3.78354,-6.07667 -6.87917,-11.28351 -6.87917,-11.57075 0,-0.28724 0.35719,-0.61797 0.79375,-0.73497 1.19645,-0.32063 3.98902,-0.26424 4.94678,0.0999 0.58991,0.22428 2.48319,2.95905 6.22783,8.99583 2.95914,4.77047 5.48526,8.67104 5.61359,8.66793 0.12833,-0.003 2.68098,-3.90658 5.67255,-8.67436 3.75126,-5.97852 5.70162,-8.76846 6.28477,-8.99017 0.95605,-0.36349 3.74933,-0.41949 4.94476,-0.0991 0.43656,0.117 0.79375,0.44584 0.79375,0.73076 0,0.28492 -3.18968,5.58651 -7.08817,11.78132 l -7.08816,11.26326 7.44094,11.95809 c 4.09252,6.57695 7.44094,12.19208 7.44094,12.47807 0,0.28598 -0.35718,0.6157 -0.79375,0.73269 -1.19929,0.32139 -3.98991,0.2639 -4.95239,-0.10203 -0.60174,-0.22878 -2.55785,-3.08448 -6.63755,-9.69006 -3.1814,-5.15112 -5.89143,-9.37078 -6.0223,-9.37701 -0.13086,-0.006 -2.8981,4.21043 -6.14942,9.37035 -4.06881,6.45729 -6.17362,9.48134 -6.7524,9.70139 -0.85323,0.3244 -3.98854,0.37129 -5.11649,0.0765 z m 60.00842,0.0252 c -0.31963,-0.0949 -0.67465,-0.52123 -0.78893,-0.9474 -0.11428,-0.42616 -0.21147,-5.6961 -0.21599,-11.71096 l -0.008,-10.93611 -7.64563,-12.30493 c -7.18802,-11.56844 -7.60608,-12.33386 -6.98473,-12.7882 0.66127,-0.48353 3.9127,-0.65364 5.31174,-0.27791 0.48586,0.13049 2.66049,3.30341 6.52486,9.52019 3.18786,5.12845 5.87686,9.32446 5.97556,9.32446 0.0987,0 2.7877,-4.19601 5.97556,-9.32446 3.86437,-6.21678 6.03899,-9.3897 6.52486,-9.52019 1.39983,-0.37594 4.65048,-0.20561 5.31237,0.27837 0.62215,0.45493 0.21142,1.20566 -6.89994,12.61181 l -7.56146,12.12808 -0.17639,11.70106 c -0.097,6.43559 -0.29879,11.8232 -0.4484,11.97247 -0.31809,0.3174 -4.04605,0.52585 -4.89526,0.27373 z"
         id="path31"
         inkscape:connector-curvature="0" />
      <path
         style="fill:#c95f2e;stroke-width:0.35277778"
         d="m -36.492386,191.55567 c -2.654624,-0.59843 -3.119518,-1.03626 -3.119518,-2.93792 0,-1.9478 0.493015,-2.16934 2.499846,-1.12332 2.033814,1.06008 5.606662,1.33107 6.313911,0.47889 0.820907,-0.98913 0.0042,-1.65631 -3.013459,-2.46169 -4.301261,-1.14796 -5.607874,-2.34863 -5.607874,-5.15318 0,-3.61818 4.464567,-5.82958 9.869133,-4.88842 2.75699,0.48011 3.343998,0.97712 3.343998,2.83132 0,1.74973 -0.484801,1.95252 -2.4915,1.04217 -2.522774,-1.14447 -5.975166,-0.8388 -5.975166,0.52903 0,0.62915 0.837007,1.00964 3.880555,1.76402 2.75221,0.68216 4.387413,1.83669 4.930027,3.48082 0.505644,1.53211 -0.0047,3.64212 -1.138516,4.7073 -1.90676,1.79131 -5.951552,2.52897 -9.491437,1.73098 z m 18.223537,0.15698 c -3.967155,-1.03744 -5.962459,-3.76676 -5.962459,-8.15591 0,-5.26162 2.924898,-8.24747 8.079126,-8.24747 5.151063,0 8.0439501,2.957 8.0686586,8.24747 0.017216,3.6848 -1.2426068,5.98452 -4.0737996,7.43652 -1.488278,0.76327 -4.560736,1.12493 -6.111526,0.71939 z m 3.757224,-3.59819 c 0.992678,-0.53127 1.710831,-2.44445 1.710831,-4.55772 0,-3.18198 -1.192191,-4.93889 -3.351388,-4.93889 -0.510583,0 -1.248834,0.17153 -1.640558,0.38118 -2.212763,1.18423 -2.262516,7.82154 -0.06819,9.09707 0.845527,0.49149 2.448828,0.50028 3.349307,0.0183 z m 120.773325,3.75293 c -0.19402,-0.0743 -0.7771,-0.22826 -1.29572,-0.34219 -2.48041,-0.54488 -4.28921,-3.64419 -3.48058,-5.96382 0.21141,-0.60647 0.80434,-1.54101 1.31761,-2.07674 0.87591,-0.91426 0.8973,-1.01376 0.34828,-1.62042 -0.32172,-0.35549 -0.75778,-1.14216 -0.96903,-1.74815 -0.53849,-1.54471 0.35783,-3.35303 2.07823,-4.19282 1.6881,-0.82402 5.11113,-0.81763 6.70331,0.0125 2.46749,1.28653 2.64352,4.45541 0.3545,6.3815 -1.15134,0.96878 -1.13968,1.65646 0.0388,2.28715 0.66472,0.35574 0.72549,0.28972 0.72549,-0.78832 0,-1.54767 0.53899,-2.02324 2.29305,-2.02324 2.41789,0 2.75987,0.87491 1.62557,4.1588 l -0.64445,1.86575 1.57867,1.3896 c 2.01891,1.77712 1.8527,2.46363 -0.59647,2.46363 -0.96964,0 -2.29852,-0.25538 -2.95306,-0.56751 -1.08011,-0.51507 -1.288,-0.51687 -2.24986,-0.0195 -1.0458,0.5408 -4.18874,1.04615 -4.87429,0.78372 z m 3.5073,-3.6914 c 0.26829,-0.43409 -3.22138,-3.31747 -3.67542,-3.03686 -0.60313,0.37276 -0.40439,1.90204 0.34451,2.65095 0.72899,0.72898 2.95919,0.98737 3.33091,0.38591 z m -1.2846,-8.4696 c -0.0823,-0.708 -0.30234,-0.91215 -0.98314,-0.91215 -1.09788,0 -1.36408,1.02305 -0.51137,1.96528 0.78966,0.87258 1.64805,0.2677 1.49451,-1.05313 z m 56.33841,12.00626 c -3.96715,-1.03744 -5.96246,-3.76676 -5.96246,-8.15591 0,-5.26162 2.9249,-8.24747 8.07913,-8.24747 5.15106,0 8.04395,2.957 8.06866,8.24747 0.0172,3.6848 -1.24261,5.98452 -4.0738,7.43652 -1.48828,0.76327 -4.56074,1.12493 -6.11153,0.71939 z m 3.75723,-3.59819 c 0.99268,-0.53127 1.71083,-2.44445 1.71083,-4.55772 0,-3.18198 -1.19219,-4.93889 -3.35139,-4.93889 -0.51058,0 -1.24883,0.17153 -1.64056,0.38118 -2.21276,1.18423 -2.26251,7.82154 -0.0682,9.09707 0.84553,0.49149 2.44883,0.50028 3.34931,0.0183 z m 8.67905,3.67665 c -0.99919,-0.17234 -1.51079,-1.17403 -1.26349,-2.47383 0.10039,-0.5276 0.55878,-0.67742 2.51392,-0.82165 1.58888,-0.11721 2.50326,-0.35393 2.72529,-0.70555 0.18378,-0.29105 0.33658,-2.39448 0.33955,-4.67431 l 0.005,-4.14514 h -1.34056 c -1.57195,0 -2.18722,-0.49619 -2.18722,-1.76389 0,-1.51302 0.58089,-1.76389 4.08431,-1.76389 2.38004,0 3.34875,0.13389 3.65713,0.50547 0.29811,0.3592 0.38717,2.24057 0.30778,6.50182 -0.12368,6.63811 -0.31001,7.23233 -2.70822,8.63676 -1.11919,0.65542 -4.29968,1.02056 -6.13389,0.70421 z m 46.12483,-0.0785 c -3.96715,-1.03744 -5.96246,-3.76676 -5.96246,-8.15591 0,-5.26162 2.9249,-8.24747 8.07913,-8.24747 5.15106,0 8.04395,2.957 8.06866,8.24747 0.0172,3.6848 -1.24261,5.98452 -4.0738,7.43652 -1.48828,0.76327 -4.56074,1.12493 -6.11153,0.71939 z m 3.75723,-3.59819 c 0.99268,-0.53127 1.71083,-2.44445 1.71083,-4.55772 0,-3.18198 -1.19219,-4.93889 -3.35139,-4.93889 -0.51058,0 -1.24883,0.17153 -1.64056,0.38118 -2.21276,1.18423 -2.26251,7.82154 -0.0682,9.09707 0.84553,0.49149 2.44883,0.50028 3.34931,0.0183 z m 11.18035,3.44121 c -2.65463,-0.59843 -3.11952,-1.03626 -3.11952,-2.93792 0,-1.9478 0.49301,-2.16934 2.49985,-1.12332 2.03381,1.06008 5.60666,1.33107 6.31391,0.47889 0.8209,-0.98913 0.004,-1.65631 -3.01346,-2.46169 -4.30126,-1.14796 -5.60788,-2.34863 -5.60788,-5.15318 0,-3.61818 4.46457,-5.82958 9.86914,-4.88842 2.75699,0.48011 3.34399,0.97712 3.34399,2.83132 0,1.74973 -0.4848,1.95252 -2.4915,1.04217 -2.52277,-1.14447 -5.97516,-0.8388 -5.97516,0.52903 0,0.62915 0.83701,1.00964 3.88055,1.76402 2.75221,0.68216 4.38742,1.83669 4.93003,3.48082 0.50564,1.53211 -0.005,3.64212 -1.13852,4.7073 -1.90676,1.79131 -5.95155,2.52897 -9.49143,1.73098 z M -4.9691271,191.2473 c -0.5988297,-0.59883 -0.5988297,-14.78228 0,-15.38111 0.2892283,-0.28923 1.9990752,-0.42334 5.39749983,-0.42334 5.33853657,0 5.82083317,0.14615 5.82083317,1.76389 0,1.50148 -0.5878018,1.76389 -3.951111,1.76389 h -3.10444436 v 1.23472 1.23473 H 2.121706 c 3.1779633,0 3.7747222,0.27886 3.7747222,1.76389 0,1.48502 -0.5967589,1.76388 -3.7747222,1.76388 h -2.92805546 v 2.92806 c 0,1.807 -0.16208022,3.09014 -0.42333334,3.35139 -0.2328333,0.23283 -1.0742083,0.42333 -1.8697222,0.42333 -0.7955138,0 -1.6368888,-0.1905 -1.8697221,-0.42333 z m 16.9333331,0 c -0.295663,-0.29566 -0.423334,-2.21074 -0.423334,-6.35 v -5.92667 H 9.4947614 c -2.2568816,0 -2.8927777,-0.38774 -2.8927777,-1.76389 0,-1.6675 0.3951817,-1.76389 7.2319443,-1.76389 6.836763,0 7.231944,0.0964 7.231944,1.76389 0,1.37615 -0.635896,1.76389 -2.892777,1.76389 h -2.046112 v 5.92667 c 0,4.13926 -0.12767,6.05434 -0.423333,6.35 -0.232833,0.23283 -1.074208,0.42333 -1.869722,0.42333 -0.795514,0 -1.636889,-0.1905 -1.869722,-0.42333 z m 14.116042,0.12467 c -0.408072,-0.25891 -4.30882,-13.85674 -4.30882,-15.02034 0,-0.26428 0.251107,-0.57687 0.55802,-0.69464 0.986469,-0.37855 3.224287,-0.22842 3.615133,0.24252 0.208446,0.25116 0.705167,1.95772 1.103831,3.79236 0.39866,1.83464 0.811967,3.71586 0.918457,4.18048 0.299808,1.30812 0.664855,0.53618 1.734093,-3.667 0.542943,-2.1343 1.233752,-4.07899 1.535134,-4.32152 0.710977,-0.57216 3.394332,-0.57036 3.869841,0.002 0.202466,0.24396 0.789122,2.10439 1.303676,4.13429 1.150176,4.53742 1.444534,5.15174 1.776455,3.70744 1.140725,-4.96373 1.954449,-7.73089 2.346487,-7.97948 0.545056,-0.34561 2.456745,-0.3994 3.25863,-0.0917 0.306913,0.11777 0.55802,0.43036 0.55802,0.69464 0,1.1636 -3.900748,14.76143 -4.308821,15.02034 -0.747941,0.47456 -3.712322,0.34101 -4.244562,-0.19123 -0.269437,-0.26944 -0.936388,-2.17444 -1.482107,-4.23333 -0.545723,-2.05878 -1.124243,-3.74332 -1.2856,-3.74332 -0.161361,0 -0.467692,0.67468 -0.680738,1.4993 -1.185922,4.59026 -1.784177,6.41444 -2.187642,6.67048 -0.585463,0.37153 -3.493124,0.37026 -4.079487,-0.002 z m 19.702971,-0.0234 c -0.420219,-0.27346 -0.03961,-1.61906 2.239281,-7.91667 1.573671,-4.34877 2.969038,-7.67297 3.269146,-7.78813 0.677213,-0.25988 3.429571,-0.25988 4.106785,0 0.300108,0.11516 1.695474,3.43936 3.269145,7.78813 3.047997,8.42301 3.046198,8.32217 0.145518,8.15424 -1.492003,-0.0864 -1.629393,-0.1821 -2.283926,-1.59121 l -0.696426,-1.49931 h -2.487704 -2.487704 l -0.696426,1.49931 c -0.654533,1.40911 -0.791922,1.50483 -2.283925,1.59121 -0.873125,0.0505 -1.815321,-0.0564 -2.093764,-0.23757 z m 8.655582,-7.24711 c -0.336419,-1.3404 -0.879313,-2.66139 -1.093763,-2.66139 -0.21445,0 -0.757343,1.32099 -1.093763,2.66139 -0.20169,0.8036 -0.122424,0.86638 1.093763,0.86638 1.216187,0 1.295453,-0.0628 1.093763,-0.86638 z m 9.383737,7.14583 c -0.59883,-0.59883 -0.59883,-14.78228 0,-15.38111 0.507213,-0.50722 6.818277,-0.5679 8.897976,-0.0856 1.878118,0.43559 3.104677,1.42305 3.695361,2.97503 0.641252,1.68482 0.108335,3.59629 -1.418946,5.08949 l -1.097696,1.0732 2.198162,2.8415 c 2.623513,3.39133 2.606985,3.91078 -0.124425,3.91078 -2.214915,0 -2.558464,-0.23813 -4.962267,-3.43958 -1.035495,-1.3791 -1.912035,-2.20486 -2.340452,-2.20486 -0.610912,0 -0.684935,0.25925 -0.684935,2.39889 0,1.39543 -0.177081,2.57597 -0.423334,2.82222 -0.232833,0.23283 -1.074208,0.42333 -1.869722,0.42333 -0.795514,0 -1.636889,-0.1905 -1.869722,-0.42333 z m 7.488968,-9.30326 c 0.657948,-0.65794 0.724669,-1.95644 0.131032,-2.55007 -0.232833,-0.23284 -1.105958,-0.42334 -1.940278,-0.42334 h -1.516944 v 1.76389 1.76389 h 1.385912 c 0.789552,0 1.624457,-0.23855 1.940278,-0.55437 z m 9.091587,9.30326 c -0.598829,-0.59883 -0.598829,-14.78228 0,-15.38111 0.289229,-0.28923 1.999075,-0.42334 5.3975,-0.42334 5.338537,0 5.820833,0.14615 5.820833,1.76389 0,1.50148 -0.587802,1.76389 -3.951111,1.76389 h -3.104444 v 1.05834 1.05833 h 2.928055 c 3.177964,0 3.774723,0.27886 3.774723,1.76389 0,1.48503 -0.596759,1.76389 -3.774723,1.76389 h -2.928055 v 1.76388 1.76389 h 3.104444 c 3.363309,0 3.951111,0.26241 3.951111,1.76389 0,1.61774 -0.482296,1.76389 -5.820833,1.76389 -3.398425,0 -5.108271,-0.1341 -5.3975,-0.42333 z m 47.624997,0 c -0.30196,-0.30196 -0.42333,-2.51473 -0.42333,-7.71792 0,-6.05572 0.0899,-7.36921 0.52949,-7.73402 0.70634,-0.58621 8.4593,-0.32207 9.70106,0.33051 2.44973,1.2874 3.50034,3.50145 2.83463,5.97371 -0.77221,2.86776 -2.57447,4.18281 -6.19596,4.52099 l -2.28311,0.2132 v 1.9951 c 0,1.0973 -0.1905,2.18559 -0.42333,2.41843 -0.23284,0.23283 -1.07421,0.42333 -1.86973,0.42333 -0.79551,0 -1.63688,-0.1905 -1.86972,-0.42333 z m 7.3982,-8.62718 c 0.79148,-0.71628 0.83929,-2.3466 0.0908,-3.09512 -0.31582,-0.31582 -1.15073,-0.55437 -1.94028,-0.55437 h -1.38591 v 2.11667 2.11667 h 1.29514 c 0.71232,0 1.58545,-0.26273 1.94028,-0.58385 z m 8.12402,8.62718 c -0.30185,-0.30186 -0.42333,-2.50864 -0.42333,-7.69056 0,-5.18191 0.12148,-7.38869 0.42333,-7.69055 0.50722,-0.50722 6.81828,-0.5679 8.89798,-0.0856 1.87812,0.43559 3.10468,1.42305 3.69536,2.97503 0.64125,1.68482 0.10834,3.59629 -1.41894,5.08949 l -1.0977,1.0732 2.19816,2.8415 c 2.62351,3.39133 2.60699,3.91078 -0.12442,3.91078 -2.21492,0 -2.55847,-0.23813 -4.96227,-3.43958 -1.0355,-1.3791 -1.91204,-2.20486 -2.34045,-2.20486 -0.61091,0 -0.68494,0.25925 -0.68494,2.39889 0,1.39543 -0.17708,2.57597 -0.42333,2.82222 -0.23283,0.23283 -1.07421,0.42333 -1.86972,0.42333 -0.79552,0 -1.63689,-0.1905 -1.86973,-0.42333 z m 7.48897,-9.30326 c 0.65795,-0.65794 0.72467,-1.95644 0.13103,-2.55007 -0.23283,-0.23284 -1.10595,-0.42334 -1.94027,-0.42334 h -1.51695 v 1.76389 1.76389 h 1.38591 c 0.78956,0 1.62446,-0.23855 1.94028,-0.55437 z m 38.72492,9.30326 c -0.30186,-0.30186 -0.42333,-2.50864 -0.42333,-7.69056 0,-5.18191 0.12147,-7.38869 0.42333,-7.69055 0.28923,-0.28923 1.99908,-0.42334 5.3975,-0.42334 5.33854,0 5.82083,0.14615 5.82083,1.76389 0,1.50148 -0.5878,1.76389 -3.95111,1.76389 h -3.10444 v 1.05834 1.05833 h 2.92806 c 3.17796,0 3.77472,0.27886 3.77472,1.76389 0,1.48503 -0.59676,1.76389 -3.77472,1.76389 h -2.92806 v 1.76388 1.76389 h 3.10444 c 3.36331,0 3.95111,0.26241 3.95111,1.76389 0,1.61774 -0.48229,1.76389 -5.82083,1.76389 -3.39842,0 -5.10827,-0.1341 -5.3975,-0.42333 z m 17.63889,0 c -0.29566,-0.29566 -0.42333,-2.21074 -0.42333,-6.35 v -5.92667 h -2.04611 c -2.25689,0 -2.89278,-0.38774 -2.89278,-1.76389 0,-1.6675 0.39518,-1.76389 7.23194,-1.76389 6.83677,0 7.23195,0.0964 7.23195,1.76389 0,1.37615 -0.6359,1.76389 -2.89278,1.76389 h -2.04611 v 5.92667 c 0,4.13926 -0.12767,6.05434 -0.42334,6.35 -0.23283,0.23283 -1.0742,0.42333 -1.86972,0.42333 -0.79551,0 -1.63689,-0.1905 -1.86972,-0.42333 z M -24.44246,127.81786 v -23.98889 h 6.685414 c 9.1421758,0 11.9969241,0.72148 14.8848229,3.76188 2.33014652,2.45319 2.93820134,4.08107 2.94330957,7.87978 0.0054328,4.04632 -0.69206532,5.76729 -3.42021927,8.43874 l -1.7756258,1.73871 2.1439328,1.08226 c 2.92949132,1.4788 4.3196368,2.787 5.7346743,5.39662 1.1507682,2.12224 1.2023019,2.37606 1.2023019,5.92145 0,3.34524 -0.095977,3.89961 -0.9904906,5.7212 -1.1557599,2.3536 -3.34880294,4.73049 -5.5599399,6.02605 -2.9040278,1.70153 -5.0294574,2.01108 -13.8084099,2.01108 h -8.03977 z m 14.7219631,19.04959 c 3.0763068,-0.39961 4.8319513,-1.24068 6.542867,-3.13446 3.17750464445,-3.51712 2.8726976,-8.91419 -0.6795805,-12.03313 -0.7276571,-0.63889 -1.9876699,-1.45563 -2.8000289,-1.81498 -2.5061933,-1.10861 -11.5682007,-1.79293 -12.4229987,-0.93814 -0.601631,0.60163 -0.601631,17.24893 0,17.85056 0.511598,0.5116 5.664129,0.55022 9.3597411,0.0701 z m -0.5451121,-23.83529 c 3.4000615,-1.19961 5.3450135,-3.94126 5.3416974,-7.52978 -0.00282,-3.14786 -1.7289251,-5.53288 -4.6246414,-6.39035 -2.128238,-0.6302 -8.782745,-0.87791 -9.418143,-0.35057 -0.447365,0.37128 -0.536875,1.60295 -0.536875,7.38737 0,5.07359 0.118678,7.06526 0.440972,7.40056 0.569542,0.59251 6.667927,0.23395 8.79699,-0.51723 z m 27.803704,4.7857 v -23.98889 l 8.554861,0.002 c 4.705173,0.001 9.478909,0.15338 10.608299,0.33835 4.365046,0.71489 8.023277,3.3017 9.745944,6.89156 1.241602,2.58736 1.427484,7.36149 0.39345,10.10525 -1.954086,5.18507 -5.740093,7.74184 -12.292817,8.30161 -1.413185,0.12072 -2.637363,0.32942 -2.7204,0.46377 -0.08304,0.13436 3.494144,4.96832 7.949286,10.74215 4.455146,5.77375 8.100265,10.64071 8.100265,10.81538 0,0.17468 -1.337515,0.31759 -2.972255,0.31759 h -2.972255 l -8.404828,-10.93645 c -5.392209,-7.0164 -8.690981,-11.01368 -9.203161,-11.1519 -1.800084,-0.48577 -1.847501,-0.19391 -1.847501,11.37183 v 10.71652 h -2.469444 -2.469444 z m 19.477315,-3.54783 c 5.796217,-1.95999 7.248,-9.58476 2.601722,-13.66425 -1.784717,-1.567 -3.163711,-1.85509 -9.987163,-2.08642 -4.634932,-0.15714 -6.20389,-0.10002 -6.614583,0.24083 -0.451669,0.37485 -0.538403,1.65036 -0.538403,7.9178 0,5.49787 0.116463,7.59167 0.440973,7.92797 0.574269,0.59514 12.16051,0.31905 14.097454,-0.33593 z m 20.73935,27.0303 c 0,-0.61549 21.64613,-46.68083 22.191722,-47.22642 0.279556,-0.27955 0.492556,-0.27955 0.772111,0 0.545592,0.54559 22.191717,46.61093 22.191717,47.22642 0,0.3941 -0.57508,0.50641 -2.59307,0.50641 h -2.593069 l -3.608197,-7.66918 c -1.984505,-4.21806 -3.794188,-7.7875 -4.021511,-7.9321 -0.539651,-0.34327 -18.984199,-0.34327 -19.523851,0 -0.227323,0.1446 -2.037006,3.71404 -4.021511,7.9321 l -3.608197,7.66918 h -2.593072 c -2.017984,0 -2.593072,-0.11231 -2.593072,-0.50641 z m 29.802352,-20.29555 c 0.274659,-0.44441 -6.74086,-15.35776 -7.224574,-15.35776 -0.483715,0 -7.499234,14.91335 -7.224575,15.35776 0.124097,0.20079 3.092732,0.34085 7.224575,0.34085 4.131842,0 7.100478,-0.14006 7.224574,-0.34085 z m 23.331708,20.51553 c -0.0974,-0.15754 3.23946,-5.71179 7.41516,-12.34279 l 7.59218,-12.05636 -7.06847,-11.3786 c -3.88766,-6.25823 -6.94066,-11.50642 -6.78444,-11.66264 0.15623,-0.15623 1.45928,-0.23691 2.89569,-0.1793 l 2.61165,0.10474 5.50257,8.81944 c 3.02641,4.85069 5.68163,8.81944 5.90048,8.81944 0.21886,0 2.77047,-3.77861 5.67025,-8.39692 2.89978,-4.61831 5.46306,-8.62674 5.69618,-8.90764 0.4636,-0.5586 5.43832,-0.75209 5.76456,-0.2242 0.0974,0.15757 -2.98886,5.31376 -6.85834,11.45818 -3.86948,6.14442 -7.03542,11.3387 -7.03542,11.54284 0,0.20414 3.32767,5.72204 7.39482,12.262 4.06715,6.53996 7.26645,12.01919 7.10956,12.17608 -0.15688,0.15689 -1.46049,0.23812 -2.8969,0.18051 l -2.61165,-0.10474 -5.99722,-9.61176 c -3.29847,-5.28648 -6.15491,-9.55986 -6.34764,-9.49639 -0.19272,0.0634 -2.14102,2.96 -4.32954,6.43677 -2.18852,3.47676 -4.92055,7.78982 -6.07118,9.58458 l -2.09205,3.26319 h -2.64161 c -1.45289,0 -2.72128,-0.12889 -2.81864,-0.28643 z m 44.45,0 c -0.0974,-0.15754 3.23946,-5.71179 7.41516,-12.34279 l 7.59218,-12.05636 -7.06847,-11.3786 c -3.88766,-6.25823 -6.94066,-11.50642 -6.78444,-11.66264 0.15622,-0.15623 1.45928,-0.23691 2.89569,-0.1793 l 2.61165,0.10474 5.50257,8.81944 c 3.02641,4.85069 5.68163,8.81944 5.90048,8.81944 0.21886,0 2.77047,-3.77861 5.67025,-8.39692 2.89978,-4.61831 5.46306,-8.62674 5.69618,-8.90764 0.4636,-0.5586 5.43831,-0.75209 5.76456,-0.2242 0.0974,0.15757 -2.98886,5.31376 -6.85834,11.45818 -3.86948,6.14442 -7.03542,11.3387 -7.03542,11.54284 0,0.20414 3.32767,5.72204 7.39482,12.262 4.06715,6.53996 7.26645,12.01919 7.10956,12.17608 -0.15688,0.15689 -1.46049,0.23812 -2.8969,0.18051 l -2.61165,-0.10474 -5.99722,-9.61176 c -3.29847,-5.28648 -6.15491,-9.55986 -6.34764,-9.49639 -0.19272,0.0634 -2.14102,2.96 -4.32954,6.43677 -2.18852,3.47676 -4.92055,7.78982 -6.07118,9.58458 l -2.09205,3.26319 h -2.64161 c -1.45289,0 -2.72128,-0.12889 -2.81864,-0.28643 z m 59.75483,-11.10216 v -11.38861 l -7.45671,-11.98292 c -4.10119,-6.59061 -7.53283,-12.26074 -7.62587,-12.60029 -0.15083,-0.55046 0.13543,-0.61736 2.64154,-0.61736 h 2.8107 l 5.91317,9.525 c 3.25225,5.23875 6.03243,9.525 6.17818,9.525 0.14576,0 2.9306,-4.28625 6.18854,-9.525 l 5.92354,-9.525 h 2.80876 c 2.50427,0 2.79043,0.0669 2.63961,0.61736 -0.093,0.33955 -3.52468,6.00968 -7.62587,12.60029 l -7.45671,11.98292 v 11.38861 11.38859 h -2.46944 -2.46944 z"
         id="path29"
         inkscape:connector-curvature="0" />
      <path
         style="fill:#aa181b;stroke-width:0.35277778"
         d="m -37.14246,191.25424 c -0.679097,-0.19402 -1.433159,-0.51665 -1.675694,-0.71694 -0.438955,-0.36251 -0.625648,-3.15051 -0.236993,-3.53917 0.112189,-0.11218 1.008397,0.21337 1.991574,0.72346 2.286622,1.18634 5.691517,1.33617 6.461638,0.28434 0.83524,-1.14078 0.07489,-1.83971 -2.739041,-2.51778 -4.288586,-1.03342 -5.492777,-1.94794 -5.824842,-4.42368 -0.447163,-3.33384 2.49395,-5.6449 7.119706,-5.5945 1.368605,0.0149 3.123374,0.21753 3.899485,0.45027 1.292867,0.38771 1.420471,0.53635 1.522811,1.77388 0.184553,2.23161 -0.05397,2.46862 -1.659868,1.64936 -2.656928,-1.35547 -5.971554,-1.26484 -6.525384,0.17841 -0.246362,0.64202 0.655969,1.51273 1.836417,1.77206 3.411809,0.74954 4.86641,1.35068 5.992029,2.4763 1.139938,1.13994 1.204302,1.32785 1.040116,3.03657 -0.309199,3.21789 -2.967972,4.89129 -7.674176,4.83003 -1.261181,-0.0164 -2.848681,-0.1886 -3.527778,-0.38261 z m 17.425451,-0.25676 c -2.908536,-1.32088 -4.352713,-3.79856 -4.364926,-7.48865 -0.01615,-4.88126 3.065504,-8.06598 7.804979,-8.06598 4.970688,0 8.0467794,3.10175 8.0467794,8.11389 0,3.66229 -1.6214407,6.30196 -4.6474804,7.56601 -1.790633,0.74799 -5.047809,0.68833 -6.839352,-0.12527 z m 5.908996,-3.53684 c 1.751767,-1.89585 1.729659,-5.90644 -0.04349,-7.89094 -2.026691,-2.26826 -5.247411,-0.86323 -5.822382,2.54 -0.860051,5.0906 2.920157,8.53896 5.865876,5.35094 z m 118.288333,3.71377 c -3.34102,-1.45526 -4.01118,-5.67401 -1.25443,-7.89698 0.51316,-0.4138 0.49219,-0.5824 -0.22801,-1.83378 -1.94333,-3.37661 0.0239,-6.0008 4.49855,-6.0008 3.30423,0 5.29166,1.43628 5.29166,3.82417 0,0.92698 -0.31898,1.51671 -1.41111,2.60884 -0.77611,0.77611 -1.41111,1.48605 -1.41111,1.57764 0,0.30635 1.58209,1.49073 2.00718,1.50262 0.23315,0.007 0.46834,-0.57623 0.52916,-1.31118 l 0.10949,-1.32292 h 1.76389 c 1.74927,0 1.76484,0.01 1.87861,1.20256 0.0631,0.6614 -0.15989,1.92163 -0.49553,2.80051 l -0.61027,1.59795 1.64494,1.43282 c 0.90472,0.78806 1.64365,1.55189 1.64207,1.69741 -0.006,0.52665 -4.68465,0.28736 -5.30179,-0.27114 -0.53138,-0.4809 -0.75084,-0.46364 -2.14444,0.16864 -1.80634,0.81955 -4.89696,0.92574 -6.50886,0.22364 z m 4.92753,-2.54013 c 0.85259,-0.32717 0.68643,-0.72928 -0.89587,-2.16804 -2.06916,-1.88145 -2.32963,-1.98609 -2.79221,-1.12175 -1.00052,1.8695 1.52309,4.12057 3.68808,3.28979 z m -0.84596,-7.91308 c 0.69802,-1.30426 -0.29793,-2.72851 -1.56735,-2.24139 -0.80417,0.30859 -0.9686,1.22959 -0.37993,2.12803 0.67011,1.02271 1.43672,1.06734 1.94728,0.11336 z m 54.81276,10.27628 c -2.90853,-1.32088 -4.35271,-3.79856 -4.36492,-7.48865 -0.0162,-4.88126 3.0655,-8.06598 7.80498,-8.06598 4.97068,0 8.04678,3.10175 8.04678,8.11389 0,3.66229 -1.62144,6.30196 -4.64748,7.56601 -1.79064,0.74799 -5.04781,0.68833 -6.83936,-0.12527 z m 5.909,-3.53684 c 1.75177,-1.89585 1.72966,-5.90644 -0.0435,-7.89094 -2.02669,-2.26826 -5.24741,-0.86323 -5.82239,2.54 -0.86005,5.0906 2.92016,8.53896 5.86588,5.35094 z m 7.14345,3.71062 c -0.10539,-0.27465 -0.1401,-0.94934 -0.0771,-1.4993 0.11146,-0.97334 0.16337,-0.99677 1.95155,-0.88067 1.58999,0.10322 1.95918,-0.003 2.74526,-0.78895 0.88625,-0.88625 0.90581,-1.00862 0.80879,-5.05816 l -0.0994,-4.14994 -1.5875,-0.17639 c -1.54551,-0.17172 -1.5875,-0.20905 -1.5875,-1.41111 v -1.23472 h 3.52777 3.52778 l 0.0965,6.08681 c 0.11056,6.97134 -0.0938,7.73504 -2.3828,8.90279 -1.73213,0.88366 -6.60802,1.03131 -6.92333,0.20964 z m 45.50866,-0.17378 c -2.90853,-1.32088 -4.35271,-3.79856 -4.36492,-7.48865 -0.0162,-4.88126 3.0655,-8.06598 7.80498,-8.06598 4.97068,0 8.04678,3.10175 8.04678,8.11389 0,3.66229 -1.62144,6.30196 -4.64748,7.56601 -1.79064,0.74799 -5.04781,0.68833 -6.83936,-0.12527 z m 5.909,-3.53684 c 1.75177,-1.89585 1.72966,-5.90644 -0.0435,-7.89094 -2.0267,-2.26826 -5.24742,-0.86323 -5.82239,2.54 -0.86005,5.0906 2.92016,8.53896 5.86588,5.35094 z m 9.82666,3.7936 c -0.67909,-0.19402 -1.43316,-0.51665 -1.67569,-0.71694 -0.43896,-0.36251 -0.62565,-3.15051 -0.23699,-3.53917 0.11219,-0.11218 1.00839,0.21337 1.99157,0.72346 2.28662,1.18634 5.69152,1.33617 6.46164,0.28434 0.83524,-1.14078 0.0749,-1.83971 -2.73904,-2.51778 -4.28859,-1.03342 -5.49278,-1.94794 -5.82484,-4.42368 -0.44717,-3.33384 2.49394,-5.6449 7.1197,-5.5945 1.36861,0.0149 3.12338,0.21753 3.89949,0.45027 1.29286,0.38771 1.42047,0.53635 1.52281,1.77388 0.18455,2.23161 -0.054,2.46862 -1.65987,1.64936 -2.65693,-1.35547 -5.97156,-1.26484 -6.52538,0.17841 -0.24637,0.64202 0.65596,1.51273 1.83641,1.77206 3.41181,0.74954 4.86641,1.35068 5.99203,2.4763 1.13994,1.13994 1.2043,1.32785 1.04012,3.03657 -0.3092,3.21789 -2.96798,4.89129 -7.67418,4.83003 -1.26118,-0.0164 -2.84868,-0.1886 -3.52778,-0.38261 z M -4.8744486,190.88683 c -0.099187,-0.25848 -0.1372553,-3.72006 -0.084596,-7.69239 l 0.095751,-7.22242 H 0.42837273 5.7200393 v 1.23472 1.23473 l -3.3513888,0.17638 -3.35138885,0.17639 v 1.41111 1.41112 l 3.17499995,0.17638 3.1749999,0.17639 v 1.23473 1.23472 l -3.1749999,0.17639 -3.17499995,0.17639 -0.17638885,3.17499 -0.1763889,3.175 -1.6792928,0.10768 c -1.1538478,0.074 -1.735723,-0.0394 -1.8596397,-0.36231 z m 16.9439696,0.01 c -0.09334,-0.25325 -0.210785,-3.07983 -0.260985,-6.28128 l -0.09127,-5.82084 -2.2930551,-0.17639 -2.2930555,-0.17638 v -1.23473 -1.23472 h 6.7027776 6.702778 v 1.23472 1.23473 l -2.293056,0.17638 -2.293055,0.17639 -0.176389,6.17361 -0.176389,6.17361 -1.679293,0.10768 c -1.140407,0.0731 -1.733754,-0.0401 -1.849003,-0.35278 z m 13.707811,-0.11347 c -0.611187,-1.59273 -3.92068,-14.48697 -3.777678,-14.71835 0.278804,-0.45112 3.58733,-0.305 3.896092,0.17206 0.156972,0.24254 0.692319,2.2666 1.189655,4.49792 0.497339,2.23132 1.052964,4.02935 1.234722,3.99561 0.181761,-0.0337 0.832382,-1.8915 1.445831,-4.12839 0.613449,-2.23688 1.218128,-4.23335 1.343738,-4.43659 0.125606,-0.20323 1.089106,-0.36952 2.14111,-0.36952 1.792976,0 1.927839,0.0607 2.153892,0.97014 1.277976,5.14118 2.123846,7.90377 2.418122,7.89754 0.194028,-0.004 0.769183,-1.82481 1.278121,-4.046 0.508939,-2.22119 1.034246,-4.21474 1.167349,-4.43011 0.270471,-0.43763 3.592661,-0.5434 3.852693,-0.12266 0.143002,0.23138 -3.166491,13.12562 -3.777678,14.71835 -0.17507,0.45623 -0.655779,0.54805 -2.427725,0.46372 l -2.209426,-0.10515 -1.139218,-4.03199 c -0.626569,-2.2176 -1.2897,-4.18248 -1.473624,-4.3664 -0.210693,-0.2107 -0.481954,0.23687 -0.733227,1.20977 -0.219354,0.8493 -0.751424,2.81418 -1.182381,4.3664 l -0.783558,2.82222 -2.199259,0.10515 c -1.762608,0.0843 -2.242598,-0.008 -2.417551,-0.46372 z m 19.988396,-0.0824 c 0.0028,-0.33955 1.166738,-3.79236 2.58614,-7.67291 l 2.580731,-7.05556 h 2.412439 2.412439 l 2.580732,7.05556 c 1.419401,3.88055 2.583166,7.33336 2.58614,7.67291 0.0045,0.51064 -0.316343,0.61736 -1.855802,0.61736 -1.845236,0 -1.867193,-0.0129 -2.557639,-1.4993 l -0.696425,-1.49931 h -2.469445 -2.469444 l -0.696426,1.49931 c -0.690446,1.48643 -0.712403,1.4993 -2.557639,1.4993 -1.539458,0 -1.860278,-0.10672 -1.855801,-0.61736 z m 8.900675,-5.5841 c 0.291228,-0.29122 -0.926906,-3.72781 -1.321365,-3.72781 -0.394458,0 -1.612593,3.43659 -1.321364,3.72781 0.112328,0.11234 0.706942,0.20424 1.321364,0.20424 0.614423,0 1.209037,-0.0919 1.321365,-0.20424 z m 9.250814,5.77044 c -0.09919,-0.25848 -0.137256,-3.72006 -0.0846,-7.69239 l 0.09575,-7.22242 4.056945,-0.10873 c 2.231319,-0.0598 4.640558,0.0621 5.353861,0.27096 1.849483,0.54145 3.113133,2.17 3.111486,4.00998 -0.0014,1.54427 -1.019394,3.63762 -1.940976,3.99127 -0.909014,0.34882 -0.592438,1.12086 1.599512,3.90079 1.229144,1.55887 1.995258,2.82853 1.815302,3.00849 -0.171245,0.17124 -1.242437,0.26305 -2.380431,0.20402 l -2.069077,-0.10734 -2.067846,-2.75482 c -1.615186,-2.15178 -2.235344,-2.73096 -2.833031,-2.64583 -0.688534,0.0981 -0.78286,0.37404 -0.941578,2.75482 l -0.176389,2.64583 -1.679293,0.10768 c -1.153848,0.074 -1.735723,-0.0394 -1.859639,-0.36231 z m 7.680465,-9.11084 c 0.747071,-0.92259 0.776189,-1.3999 0.138593,-2.27186 -0.351561,-0.48079 -0.949498,-0.66649 -2.204861,-0.68479 l -1.722487,-0.0251 -0.110451,1.53967 c -0.168533,2.34931 0.04892,2.64209 1.78896,2.4087 0.927104,-0.12435 1.723683,-0.48923 2.110246,-0.96662 z m 8.896251,9.10084 c -0.09708,-0.25299 -0.133417,-3.71006 -0.08076,-7.68239 l 0.09575,-7.22242 h 5.291666 5.291667 v 1.23472 1.23473 l -3.351389,0.17638 -3.351389,0.17639 v 1.23473 1.23472 l 3.175,0.17639 3.175,0.17639 v 1.23472 1.23472 l -3.175,0.17639 -3.175,0.17639 v 1.94027 1.94028 l 3.351389,0.17639 3.351389,0.17639 v 1.23472 1.23472 l -5.210909,0.0977 c -4.029015,0.0755 -5.250942,-0.007 -5.387418,-0.3623 z m 47.628837,0.01 c -0.0992,-0.25849 -0.13725,-3.72007 -0.0846,-7.6924 l 0.0958,-7.22243 4.05694,-0.10144 c 4.80918,-0.12026 6.71697,0.41133 7.78966,2.1705 0.94615,1.55165 0.89363,4.03471 -0.11674,5.51925 -1.35257,1.98733 -2.46625,2.57625 -5.28678,2.79567 l -2.56253,0.19935 -0.17639,2.29306 -0.17639,2.29305 -1.67929,0.10768 c -1.15385,0.074 -1.73572,-0.0394 -1.85964,-0.36231 z m 7.68047,-8.40529 c 1.37903,-1.70302 0.22223,-3.59766 -2.23008,-3.65247 l -1.55868,-0.0349 -0.10823,1.89823 c -0.1561,2.73777 0.0101,2.994 1.78674,2.75569 0.9271,-0.12435 1.72368,-0.48922 2.11025,-0.96661 z m 7.84175,8.40529 c -0.0992,-0.25849 -0.13725,-3.72007 -0.0846,-7.6924 l 0.0958,-7.22243 4.05694,-0.10873 c 2.23132,-0.0598 4.64056,0.0621 5.35386,0.27096 1.84949,0.54145 3.11314,2.17 3.11149,4.00998 -0.001,1.54427 -1.01939,3.63762 -1.94098,3.99127 -0.90901,0.34882 -0.59243,1.12086 1.59951,3.90079 1.22915,1.55887 1.99526,2.82853 1.81531,3.00849 -0.17125,0.17124 -1.24244,0.26305 -2.38043,0.20402 l -2.06908,-0.10734 -2.06785,-2.75482 c -1.61518,-2.15178 -2.23534,-2.73096 -2.83303,-2.64583 -0.68853,0.0981 -0.78286,0.37404 -0.94158,2.75482 l -0.17638,2.64583 -1.6793,0.10768 c -1.15385,0.074 -1.73572,-0.0394 -1.85964,-0.36231 z m 7.68047,-9.11084 c 0.74707,-0.92259 0.77619,-1.3999 0.13859,-2.27187 -0.35156,-0.48078 -0.9495,-0.66649 -2.20486,-0.68478 l -1.72249,-0.0251 -0.11045,1.53967 c -0.16853,2.34931 0.0489,2.64209 1.78896,2.4087 0.92711,-0.12435 1.72369,-0.48923 2.11025,-0.96662 z m 38.52958,9.10083 c -0.0971,-0.25298 -0.13341,-3.71006 -0.0808,-7.68239 l 0.0958,-7.22243 h 5.29166 5.29167 v 1.23472 1.23473 l -3.35139,0.17638 -3.35139,0.17639 v 1.23473 1.23472 l 3.175,0.17639 3.175,0.17639 v 1.23472 1.23472 l -3.175,0.17639 -3.175,0.17639 v 1.94027 1.94028 l 3.35139,0.17639 3.35139,0.17639 v 1.23472 1.23472 l -5.21091,0.0977 c -4.02902,0.0755 -5.25094,-0.007 -5.38742,-0.3623 z m 17.65337,0.0196 c -0.0933,-0.25328 -0.21079,-3.07986 -0.26099,-6.28131 l -0.0913,-5.82084 -2.29306,-0.17639 -2.29306,-0.17638 v -1.23473 -1.23472 h 6.70278 6.70278 v 1.23472 1.23473 l -2.29306,0.17638 -2.29305,0.17639 -0.17639,6.17361 -0.17639,6.17361 -1.67929,0.10768 c -1.14041,0.0731 -1.73376,-0.0401 -1.849,-0.35278 z M -24.089682,127.85038 v -23.66864 l 5.732638,0.003 c 8.7405813,0.004 12.3599789,0.85811 15.0541145,3.55225 2.046739,2.04674 3.02856539,4.62833 3.00844647,7.91036 -0.0221544,3.61572 -0.86001577,5.54249 -3.50753887,8.06615 -2.2251281,2.12103 -2.2772863,1.95155 1.156014,3.75627 2.57088562,1.35139 4.0746432,2.92602 5.2536194,5.50125 2.4579227,5.36881 0.5440857,12.33105 -4.3071661,15.6688 -3.3793711,2.32507 -4.7298573,2.58934 -14.0116554,2.74185 l -8.378472,0.13767 v -23.66863 z m 17.8152771,18.71516 c 2.1083834,-0.94687 3.8440253,-2.53534 4.8734309,-4.46019 0.5773349,-1.07953 0.75658129,-2.03931 0.76283604,-4.0846 0.007232,-2.36691 -0.11405658,-2.87121 -1.05771594,-4.39755 -2.4428555,-3.95122 -5.5874531,-5.21742 -13.0452171,-5.25277 l -4.938889,-0.0234 -0.09432,9.16643 c -0.05187,5.04153 -0.01002,9.38606 0.09297,9.65449 0.152153,0.39651 1.261819,0.46009 5.915148,0.33891 4.9793243,-0.12967 5.9583743,-0.25268 7.4917511,-0.94132 z m -5.0234671,-22.76467 c 5.455193,-1.28369 8.4340591,-6.64673 6.3006426,-11.34344 -1.478661,-3.25527 -3.7574184,-4.20623 -10.0966196,-4.21349 l -4.586111,-0.005 -0.09544,7.57599 c -0.05249,4.1668 -0.01778,7.77837 0.07712,8.0257 0.235881,0.6147 5.730109,0.58885 8.400408,-0.0395 z m 29.188744,3.97259 v -23.6805 l 9.260417,0.19616 c 5.093229,0.10789 9.99714,0.37515 10.89758,0.59391 7.548587,1.83393 11.265955,10.30001 7.701675,17.54009 -1.955683,3.97255 -5.125367,5.83198 -11.190922,6.56489 -2.528334,0.3055 -3.26226,0.51606 -3.259046,0.93499 0.0021,0.29738 3.567557,5.14444 7.922832,10.77124 4.35527,5.62681 7.925279,10.34962 7.933347,10.49514 0.0081,0.14552 -1.087391,0.26459 -2.434357,0.26459 h -2.449025 l -8.376522,-10.84792 c -4.607087,-5.96635 -8.545336,-10.96873 -8.751665,-11.11638 -0.206332,-0.14765 -0.930772,-0.22703 -1.609869,-0.17639 l -1.234723,0.0921 -0.09322,11.0243 -0.09322,11.02431 h -2.111643 -2.11164 z m 18.342247,-2.81031 c 3.558275,-0.76312 6.216293,-3.80126 6.602909,-7.54719 0.370413,-3.58897 -1.839457,-7.2719 -5.123836,-8.5393 -1.391891,-0.53711 -2.740829,-0.63797 -8.532431,-0.63797 h -6.879167 l -0.09502,8.10625 c -0.05226,4.45844 -0.01757,8.30813 0.07712,8.55486 0.22159,0.57746 11.318246,0.62785 13.950424,0.0633 z m 21.874419,26.33718 c 0,-0.61031 21.933859,-46.58942 22.225,-46.58942 0.29114,0 22.225002,45.97911 22.225002,46.58942 0,0.0845 -1.00766,0.15364 -2.23924,0.15364 h -2.239234 l -3.696095,-7.84931 -3.696095,-7.8493 H 80.332538 69.9782 l -3.696095,7.8493 -3.696095,7.84931 h -2.239236 c -1.231579,0 -2.239236,-0.0691 -2.239236,-0.15364 z m 30.080119,-20.04361 c 0.172508,-0.44956 -6.768864,-15.5465 -7.470831,-16.24847 -0.277199,-0.27719 -0.491378,-0.27719 -0.768576,0 -0.701968,0.70197 -7.64334,15.79891 -7.470832,16.24847 0.245096,0.6387 15.465143,0.6387 15.710239,0 z m 23.189323,20.00961 c 0,-0.10319 3.33375,-5.48816 7.40833,-11.96658 4.07459,-6.47843 7.40834,-11.96565 7.40834,-12.19383 0,-0.22817 -3.09563,-5.38668 -6.87917,-11.46336 -3.78354,-6.07668 -6.87917,-11.14128 -6.87917,-11.25466 0,-0.11339 1.00728,-0.20616 2.23838,-0.20616 1.69844,0 2.36386,0.14893 2.75858,0.61737 0.28611,0.33954 2.71848,4.18923 5.40527,8.55486 2.6868,4.36562 5.18522,8.255 5.55205,8.64305 l 0.66697,0.70556 0.5275,-0.70556 c 0.29012,-0.38805 2.76724,-4.27743 5.50471,-8.64305 2.73746,-4.36563 5.21429,-8.21532 5.50405,-8.55486 0.39916,-0.46775 1.06933,-0.61737 2.76523,-0.61737 1.2311,0 2.23838,0.0858 2.23838,0.19066 0,0.10485 -3.10698,5.12514 -6.90439,11.15618 -3.79741,6.03105 -6.92147,11.2237 -6.94235,11.53921 -0.0209,0.31552 3.24484,5.83988 7.25716,12.27635 4.01232,6.43646 7.29513,11.79427 7.29513,11.90624 0,0.11197 -1.00727,0.20359 -2.23838,0.20359 -1.69635,0 -2.36567,-0.1495 -2.76405,-0.61737 -0.28911,-0.33954 -3.10769,-4.78454 -6.2635,-9.87777 -3.15581,-5.09323 -5.85613,-9.26042 -6.00072,-9.26042 -0.49395,0 -1.33956,1.24103 -6.73047,9.87778 -2.96717,4.75368 -5.63251,8.92087 -5.92299,9.26041 -0.40002,0.46761 -1.0711,0.61737 -2.76651,0.61737 -1.23111,0 -2.23838,-0.0844 -2.23838,-0.18764 z m 44.45,0 c 0,-0.10319 3.33375,-5.48816 7.40833,-11.96658 4.07459,-6.47843 7.40834,-11.96565 7.40834,-12.19383 0,-0.22817 -3.09563,-5.38668 -6.87917,-11.46336 -3.78354,-6.07668 -6.87917,-11.14128 -6.87917,-11.25466 0,-0.11339 1.00728,-0.20616 2.23838,-0.20616 1.69844,0 2.36386,0.14893 2.75858,0.61737 0.28611,0.33954 2.71848,4.18923 5.40527,8.55486 2.6868,4.36562 5.18522,8.255 5.55205,8.64305 l 0.66697,0.70556 0.5275,-0.70556 c 0.29012,-0.38805 2.76724,-4.27743 5.50471,-8.64305 2.73746,-4.36563 5.21429,-8.21532 5.50405,-8.55486 0.39916,-0.46775 1.06932,-0.61737 2.76523,-0.61737 1.2311,0 2.23837,0.0858 2.23837,0.19066 0,0.10485 -3.10697,5.12514 -6.90438,11.15618 -3.79741,6.03105 -6.92147,11.2237 -6.94235,11.53921 -0.0209,0.31552 3.24483,5.83988 7.25716,12.27635 4.01232,6.43646 7.29513,11.79427 7.29513,11.90624 0,0.11197 -1.00727,0.20359 -2.23838,0.20359 -1.69635,0 -2.36567,-0.1495 -2.76405,-0.61737 -0.28911,-0.33954 -3.10769,-4.78454 -6.2635,-9.87777 -3.15581,-5.09323 -5.85614,-9.26042 -6.00072,-9.26042 -0.49395,0 -1.33956,1.24103 -6.73047,9.87778 -2.96717,4.75368 -5.63251,8.92087 -5.92299,9.26041 -0.40002,0.46761 -1.0711,0.61737 -2.76651,0.61737 -1.23111,0 -2.23838,-0.0844 -2.23838,-0.18764 z m 59.61944,-11.19514 V 128.6884 l -7.40833,-11.90779 c -4.07458,-6.54928 -7.40833,-12.06328 -7.40833,-12.25333 0,-0.19004 1.01281,-0.34554 2.25069,-0.34554 h 2.25069 l 5.97608,9.6132 c 3.28685,5.28726 6.19199,9.61319 6.45587,9.61319 0.26388,0 3.16902,-4.32593 6.45587,-9.61319 l 5.97608,-9.6132 h 2.25069 c 1.23788,0 2.25069,0.1555 2.25069,0.34554 0,0.19005 -3.33375,5.70405 -7.40833,12.25333 l -7.40833,11.90779 v 11.38279 11.38278 h -2.11667 -2.11667 z"
         id="path27"
         inkscape:connector-curvature="0" />
      <path
         style="fill:#5e4f1d;stroke-width:0.35277778"
         d="m -37.14246,191.25424 c -0.679097,-0.19402 -1.433159,-0.51665 -1.675694,-0.71694 -0.438955,-0.36251 -0.625648,-3.15051 -0.236993,-3.53917 0.112189,-0.11218 1.008397,0.21337 1.991574,0.72346 2.286622,1.18634 5.691517,1.33617 6.461638,0.28434 0.83524,-1.14078 0.07489,-1.83971 -2.739041,-2.51778 -4.288586,-1.03342 -5.492777,-1.94794 -5.824842,-4.42368 -0.447163,-3.33384 2.49395,-5.6449 7.119706,-5.5945 1.368605,0.0149 3.123374,0.21753 3.899485,0.45027 1.292867,0.38771 1.420471,0.53635 1.522811,1.77388 0.184553,2.23161 -0.05397,2.46862 -1.659868,1.64936 -2.656928,-1.35547 -5.971554,-1.26484 -6.525384,0.17841 -0.246362,0.64202 0.655969,1.51273 1.836417,1.77206 3.411809,0.74954 4.86641,1.35068 5.992029,2.4763 1.139938,1.13994 1.204302,1.32785 1.040116,3.03657 -0.309199,3.21789 -2.967972,4.89129 -7.674176,4.83003 -1.261181,-0.0164 -2.848681,-0.1886 -3.527778,-0.38261 z m 17.425451,-0.25676 c -2.908536,-1.32088 -4.352713,-3.79856 -4.364926,-7.48865 -0.01615,-4.88126 3.065504,-8.06598 7.804979,-8.06598 4.970688,0 8.0467794,3.10175 8.0467794,8.11389 0,3.66229 -1.6214407,6.30196 -4.6474804,7.56601 -1.790633,0.74799 -5.047809,0.68833 -6.839352,-0.12527 z m 5.908996,-3.53684 c 1.751767,-1.89585 1.729659,-5.90644 -0.04349,-7.89094 -2.026691,-2.26826 -5.247411,-0.86323 -5.822382,2.54 -0.860051,5.0906 2.920157,8.53896 5.865876,5.35094 z m 118.288333,3.71377 c -3.34102,-1.45526 -4.01118,-5.67401 -1.25443,-7.89698 0.51316,-0.4138 0.49219,-0.5824 -0.22801,-1.83378 -1.94333,-3.37661 0.0239,-6.0008 4.49855,-6.0008 3.30423,0 5.29166,1.43628 5.29166,3.82417 0,0.92698 -0.31898,1.51671 -1.41111,2.60884 -0.77611,0.77611 -1.41111,1.48605 -1.41111,1.57764 0,0.30635 1.58209,1.49073 2.00718,1.50262 0.23315,0.007 0.46834,-0.57623 0.52916,-1.31118 l 0.10949,-1.32292 h 1.76389 c 1.74927,0 1.76484,0.01 1.87861,1.20256 0.0631,0.6614 -0.15989,1.92163 -0.49553,2.80051 l -0.61027,1.59795 1.64494,1.43282 c 0.90472,0.78806 1.64365,1.55189 1.64207,1.69741 -0.006,0.52665 -4.68465,0.28736 -5.30179,-0.27114 -0.53138,-0.4809 -0.75084,-0.46364 -2.14444,0.16864 -1.80634,0.81955 -4.89696,0.92574 -6.50886,0.22364 z m 4.92753,-2.54013 c 0.85259,-0.32717 0.68643,-0.72928 -0.89587,-2.16804 -2.06916,-1.88145 -2.32963,-1.98609 -2.79221,-1.12175 -1.00052,1.8695 1.52309,4.12057 3.68808,3.28979 z m -0.84596,-7.91308 c 0.69802,-1.30426 -0.29793,-2.72851 -1.56735,-2.24139 -0.80417,0.30859 -0.9686,1.22959 -0.37993,2.12803 0.67011,1.02271 1.43672,1.06734 1.94728,0.11336 z m 54.81276,10.27628 c -2.90853,-1.32088 -4.35271,-3.79856 -4.36492,-7.48865 -0.0162,-4.88126 3.0655,-8.06598 7.80498,-8.06598 4.97068,0 8.04678,3.10175 8.04678,8.11389 0,3.66229 -1.62144,6.30196 -4.64748,7.56601 -1.79064,0.74799 -5.04781,0.68833 -6.83936,-0.12527 z m 5.909,-3.53684 c 1.75177,-1.89585 1.72966,-5.90644 -0.0435,-7.89094 -2.02669,-2.26826 -5.24741,-0.86323 -5.82239,2.54 -0.86005,5.0906 2.92016,8.53896 5.86588,5.35094 z m 7.14345,3.71062 c -0.10539,-0.27465 -0.1401,-0.94934 -0.0771,-1.4993 0.11146,-0.97334 0.16337,-0.99677 1.95155,-0.88067 1.58999,0.10322 1.95918,-0.003 2.74526,-0.78895 0.88625,-0.88625 0.90581,-1.00862 0.80879,-5.05816 l -0.0994,-4.14994 -1.5875,-0.17639 c -1.54551,-0.17172 -1.5875,-0.20905 -1.5875,-1.41111 v -1.23472 h 3.52777 3.52778 l 0.0965,6.08681 c 0.11056,6.97134 -0.0938,7.73504 -2.3828,8.90279 -1.73213,0.88366 -6.60802,1.03131 -6.92333,0.20964 z m 45.50866,-0.17378 c -2.90853,-1.32088 -4.35271,-3.79856 -4.36492,-7.48865 -0.0162,-4.88126 3.0655,-8.06598 7.80498,-8.06598 4.97068,0 8.04678,3.10175 8.04678,8.11389 0,3.66229 -1.62144,6.30196 -4.64748,7.56601 -1.79064,0.74799 -5.04781,0.68833 -6.83936,-0.12527 z m 5.909,-3.53684 c 1.75177,-1.89585 1.72966,-5.90644 -0.0435,-7.89094 -2.0267,-2.26826 -5.24742,-0.86323 -5.82239,2.54 -0.86005,5.0906 2.92016,8.53896 5.86588,5.35094 z m 9.82666,3.7936 c -0.67909,-0.19402 -1.43316,-0.51665 -1.67569,-0.71694 -0.43896,-0.36251 -0.62565,-3.15051 -0.23699,-3.53917 0.11219,-0.11218 1.00839,0.21337 1.99157,0.72346 2.28662,1.18634 5.69152,1.33617 6.46164,0.28434 0.83524,-1.14078 0.0749,-1.83971 -2.73904,-2.51778 -4.28859,-1.03342 -5.49278,-1.94794 -5.82484,-4.42368 -0.44717,-3.33384 2.49394,-5.6449 7.1197,-5.5945 1.36861,0.0149 3.12338,0.21753 3.89949,0.45027 1.29286,0.38771 1.42047,0.53635 1.52281,1.77388 0.18455,2.23161 -0.054,2.46862 -1.65987,1.64936 -2.65693,-1.35547 -5.97156,-1.26484 -6.52538,0.17841 -0.24637,0.64202 0.65596,1.51273 1.83641,1.77206 3.41181,0.74954 4.86641,1.35068 5.99203,2.4763 1.13994,1.13994 1.2043,1.32785 1.04012,3.03657 -0.3092,3.21789 -2.96798,4.89129 -7.67418,4.83003 -1.26118,-0.0164 -2.84868,-0.1886 -3.52778,-0.38261 z M -4.8744486,190.88683 c -0.099187,-0.25848 -0.1372553,-3.72006 -0.084596,-7.69239 l 0.095751,-7.22242 H 0.42837273 5.7200393 v 1.23472 1.23473 l -3.3513888,0.17638 -3.35138885,0.17639 v 1.41111 1.41112 l 3.17499995,0.17638 3.1749999,0.17639 v 1.23473 1.23472 l -3.1749999,0.17639 -3.17499995,0.17639 -0.17638885,3.17499 -0.1763889,3.175 -1.6792928,0.10768 c -1.1538478,0.074 -1.735723,-0.0394 -1.8596397,-0.36231 z m 16.9439696,0.01 c -0.09334,-0.25325 -0.210785,-3.07983 -0.260985,-6.28128 l -0.09127,-5.82084 -2.2930551,-0.17639 -2.2930555,-0.17638 v -1.23473 -1.23472 h 6.7027776 6.702778 v 1.23472 1.23473 l -2.293056,0.17638 -2.293055,0.17639 -0.176389,6.17361 -0.176389,6.17361 -1.679293,0.10768 c -1.140407,0.0731 -1.733754,-0.0401 -1.849003,-0.35278 z m 13.707811,-0.11347 c -0.611187,-1.59273 -3.92068,-14.48697 -3.777678,-14.71835 0.278804,-0.45112 3.58733,-0.305 3.896092,0.17206 0.156972,0.24254 0.692319,2.2666 1.189655,4.49792 0.497339,2.23132 1.052964,4.02935 1.234722,3.99561 0.181761,-0.0337 0.832382,-1.8915 1.445831,-4.12839 0.613449,-2.23688 1.218128,-4.23335 1.343738,-4.43659 0.125606,-0.20323 1.089106,-0.36952 2.14111,-0.36952 1.792976,0 1.927839,0.0607 2.153892,0.97014 1.277976,5.14118 2.123846,7.90377 2.418122,7.89754 0.194028,-0.004 0.769183,-1.82481 1.278121,-4.046 0.508939,-2.22119 1.034246,-4.21474 1.167349,-4.43011 0.270471,-0.43763 3.592661,-0.5434 3.852693,-0.12266 0.143002,0.23138 -3.166491,13.12562 -3.777678,14.71835 -0.17507,0.45623 -0.655779,0.54805 -2.427725,0.46372 l -2.209426,-0.10515 -1.139218,-4.03199 c -0.626569,-2.2176 -1.2897,-4.18248 -1.473624,-4.3664 -0.210693,-0.2107 -0.481954,0.23687 -0.733227,1.20977 -0.219354,0.8493 -0.751424,2.81418 -1.182381,4.3664 l -0.783558,2.82222 -2.199259,0.10515 c -1.762608,0.0843 -2.242598,-0.008 -2.417551,-0.46372 z m 19.988396,-0.0824 c 0.0028,-0.33955 1.166738,-3.79236 2.58614,-7.67291 l 2.580731,-7.05556 h 2.412439 2.412439 l 2.580732,7.05556 c 1.419401,3.88055 2.583166,7.33336 2.58614,7.67291 0.0045,0.51064 -0.316343,0.61736 -1.855802,0.61736 -1.845236,0 -1.867193,-0.0129 -2.557639,-1.4993 l -0.696425,-1.49931 h -2.469445 -2.469444 l -0.696426,1.49931 c -0.690446,1.48643 -0.712403,1.4993 -2.557639,1.4993 -1.539458,0 -1.860278,-0.10672 -1.855801,-0.61736 z m 8.900675,-5.5841 c 0.291228,-0.29122 -0.926906,-3.72781 -1.321365,-3.72781 -0.394458,0 -1.612593,3.43659 -1.321364,3.72781 0.112328,0.11234 0.706942,0.20424 1.321364,0.20424 0.614423,0 1.209037,-0.0919 1.321365,-0.20424 z m 9.250814,5.77044 c -0.09919,-0.25848 -0.137256,-3.72006 -0.0846,-7.69239 l 0.09575,-7.22242 4.056945,-0.10873 c 2.231319,-0.0598 4.640558,0.0621 5.353861,0.27096 1.849483,0.54145 3.113133,2.17 3.111486,4.00998 -0.0014,1.54427 -1.019394,3.63762 -1.940976,3.99127 -0.909014,0.34882 -0.592438,1.12086 1.599512,3.90079 1.229144,1.55887 1.995258,2.82853 1.815302,3.00849 -0.171245,0.17124 -1.242437,0.26305 -2.380431,0.20402 l -2.069077,-0.10734 -2.067846,-2.75482 c -1.615186,-2.15178 -2.235344,-2.73096 -2.833031,-2.64583 -0.688534,0.0981 -0.78286,0.37404 -0.941578,2.75482 l -0.176389,2.64583 -1.679293,0.10768 c -1.153848,0.074 -1.735723,-0.0394 -1.859639,-0.36231 z m 7.680465,-9.11084 c 0.747071,-0.92259 0.776189,-1.3999 0.138593,-2.27186 -0.351561,-0.48079 -0.949498,-0.66649 -2.204861,-0.68479 l -1.722487,-0.0251 -0.110451,1.53967 c -0.168533,2.34931 0.04892,2.64209 1.78896,2.4087 0.927104,-0.12435 1.723683,-0.48923 2.110246,-0.96662 z m 8.896251,9.10084 c -0.09708,-0.25299 -0.133417,-3.71006 -0.08076,-7.68239 l 0.09575,-7.22242 h 5.291666 5.291667 v 1.23472 1.23473 l -3.351389,0.17638 -3.351389,0.17639 v 1.23473 1.23472 l 3.175,0.17639 3.175,0.17639 v 1.23472 1.23472 l -3.175,0.17639 -3.175,0.17639 v 1.94027 1.94028 l 3.351389,0.17639 3.351389,0.17639 v 1.23472 1.23472 l -5.210909,0.0977 c -4.029015,0.0755 -5.250942,-0.007 -5.387418,-0.3623 z m 47.628837,0.01 c -0.0992,-0.25849 -0.13725,-3.72007 -0.0846,-7.6924 l 0.0958,-7.22243 4.05694,-0.10144 c 4.80918,-0.12026 6.71697,0.41133 7.78966,2.1705 0.94615,1.55165 0.89363,4.03471 -0.11674,5.51925 -1.35257,1.98733 -2.46625,2.57625 -5.28678,2.79567 l -2.56253,0.19935 -0.17639,2.29306 -0.17639,2.29305 -1.67929,0.10768 c -1.15385,0.074 -1.73572,-0.0394 -1.85964,-0.36231 z m 7.68047,-8.40529 c 1.37903,-1.70302 0.22223,-3.59766 -2.23008,-3.65247 l -1.55868,-0.0349 -0.10823,1.89823 c -0.1561,2.73777 0.0101,2.994 1.78674,2.75569 0.9271,-0.12435 1.72368,-0.48922 2.11025,-0.96661 z m 7.84175,8.40529 c -0.0992,-0.25849 -0.13725,-3.72007 -0.0846,-7.6924 l 0.0958,-7.22243 4.05694,-0.10873 c 2.23132,-0.0598 4.64056,0.0621 5.35386,0.27096 1.84949,0.54145 3.11314,2.17 3.11149,4.00998 -0.001,1.54427 -1.01939,3.63762 -1.94098,3.99127 -0.90901,0.34882 -0.59243,1.12086 1.59951,3.90079 1.22915,1.55887 1.99526,2.82853 1.81531,3.00849 -0.17125,0.17124 -1.24244,0.26305 -2.38043,0.20402 l -2.06908,-0.10734 -2.06785,-2.75482 c -1.61518,-2.15178 -2.23534,-2.73096 -2.83303,-2.64583 -0.68853,0.0981 -0.78286,0.37404 -0.94158,2.75482 l -0.17638,2.64583 -1.6793,0.10768 c -1.15385,0.074 -1.73572,-0.0394 -1.85964,-0.36231 z m 7.68047,-9.11084 c 0.74707,-0.92259 0.77619,-1.3999 0.13859,-2.27187 -0.35156,-0.48078 -0.9495,-0.66649 -2.20486,-0.68478 l -1.72249,-0.0251 -0.11045,1.53967 c -0.16853,2.34931 0.0489,2.64209 1.78896,2.4087 0.92711,-0.12435 1.72369,-0.48923 2.11025,-0.96662 z m 38.52958,9.10083 c -0.0971,-0.25298 -0.13341,-3.71006 -0.0808,-7.68239 l 0.0958,-7.22243 h 5.29166 5.29167 v 1.23472 1.23473 l -3.35139,0.17638 -3.35139,0.17639 v 1.23473 1.23472 l 3.175,0.17639 3.175,0.17639 v 1.23472 1.23472 l -3.175,0.17639 -3.175,0.17639 v 1.94027 1.94028 l 3.35139,0.17639 3.35139,0.17639 v 1.23472 1.23472 l -5.21091,0.0977 c -4.02902,0.0755 -5.25094,-0.007 -5.38742,-0.3623 z m 17.65337,0.0196 c -0.0933,-0.25328 -0.21079,-3.07986 -0.26099,-6.28131 l -0.0913,-5.82084 -2.29306,-0.17639 -2.29306,-0.17638 v -1.23473 -1.23472 h 6.70278 6.70278 v 1.23472 1.23473 l -2.29306,0.17638 -2.29305,0.17639 -0.17639,6.17361 -0.17639,6.17361 -1.67929,0.10768 c -1.14041,0.0731 -1.73376,-0.0401 -1.849,-0.35278 z"
         id="path25"
         inkscape:connector-curvature="0" />
      <path
         style="fill:#090702;stroke-width:0.35277778"
         d="m -35.907738,191.09816 c -2.867344,-0.7277 -2.998611,-0.82739 -2.998611,-2.27711 0,-0.76106 0.0857,-1.38375 0.190443,-1.38375 0.104744,0 0.829976,0.32626 1.611627,0.72503 3.594562,1.83381 7.952384,0.95962 7.190031,-1.44235 -0.219562,-0.69177 -1.272977,-1.17879 -3.876823,-1.79233 -3.369638,-0.79398 -4.721056,-1.89888 -4.987314,-4.07755 -0.447128,-3.65867 4.606984,-6.01707 9.926203,-4.63187 1.701828,0.44319 1.76784,0.50754 1.876181,1.82925 0.09904,1.20822 0.03658,1.33792 -0.529166,1.09888 -3.104737,-1.31179 -5.021799,-1.55379 -6.602677,-0.8335 -1.62572,0.74073 -1.590269,2.43713 0.06392,3.05866 0.527124,0.19806 1.752159,0.5445 2.722297,0.76986 0.970139,0.22537 2.286819,0.65742 2.925957,0.96013 3.016483,1.42865 2.776343,5.59439 -0.416863,7.23138 -1.434162,0.73521 -5.48997,1.17267 -7.095205,0.76527 z m 17.122613,-0.17355 c -3.240359,-0.98526 -4.759036,-3.33646 -4.759036,-7.36787 0,-4.39398 1.702975,-6.67648 5.589573,-7.4917 3.597462,-0.75458 6.966169,0.5874 8.3669155,3.33309 2.0087342,3.93745 0.7571986,9.22335 -2.5931145,10.95211 -1.564146,0.8071 -4.888166,1.09618 -6.604338,0.57437 z m 4.744783,-2.48821 c 1.277969,-1.00525 1.945104,-2.67888 1.945104,-4.87966 0,-3.28293 -1.705921,-5.64444 -4.077451,-5.64444 -1.521037,0 -3.203515,1.42498 -3.671373,3.10948 -1.16731,4.20286 0.627557,8.17941 3.69188,8.17941 0.634816,0 1.570224,-0.33875 2.11184,-0.76479 z m 119.399502,2.54694 c -1.60764,-0.48782 -2.43078,-1.0767 -2.97436,-2.12787 -0.9611,-1.85857 -0.62362,-3.46922 1.11893,-5.3401 l 0.85998,-0.92332 -0.90309,-1.33077 c -1.09141,-1.60829 -1.13862,-2.60161 -0.18148,-3.81842 1.8632,-2.36868 7.76316,-2.04192 8.81108,0.48798 0.71415,1.72411 0.18154,2.85271 -2.30252,4.8791 -0.54997,0.44865 -0.49848,0.58756 0.63976,1.7258 1.5756,1.57559 2.36063,1.37102 2.36063,-0.61515 v -1.42218 h 1.63545 1.63546 l -0.21843,1.59358 c -0.12013,0.87647 -0.46842,2.07702 -0.77397,2.66788 -0.55273,1.06886 -0.54829,1.08094 0.87603,2.38289 0.78737,0.71973 1.43157,1.42418 1.43157,1.56545 0,0.52977 -3.4344,0.26528 -3.9041,-0.30067 -0.49426,-0.59555 -1.04766,-0.53952 -3.32784,0.33694 -1.52214,0.58508 -3.34252,0.67599 -4.7831,0.23886 z m 4.80387,-2.28864 c 0.65867,-0.48718 0.62641,-0.56626 -0.846,-2.07391 -0.84194,-0.86207 -1.92945,-1.78077 -2.41671,-2.04154 -0.7855,-0.42039 -0.94189,-0.3976 -1.37963,0.20105 -0.7751,1.06001 -0.58343,2.26877 0.53749,3.38969 1.15887,1.15887 2.93968,1.3865 4.10485,0.52471 z m -1.45188,-7.33312 c 0.70924,-1.01259 0.69708,-1.99555 -0.0347,-2.80414 -0.71654,-0.79177 -1.653,-0.82734 -2.38957,-0.0908 -0.79694,0.79694 -0.6839,1.81762 0.31154,2.81306 1.06758,1.06758 1.4129,1.08096 2.1127,0.0819 z m 55.59539,9.56303 c -3.24036,-0.98526 -4.75904,-3.33646 -4.75904,-7.36787 0,-4.39398 1.70298,-6.67648 5.58958,-7.4917 3.59746,-0.75458 6.96616,0.5874 8.36691,3.33309 2.00873,3.93745 0.7572,9.22335 -2.59311,10.95211 -1.56415,0.8071 -4.88817,1.09618 -6.60434,0.57437 z m 4.74478,-2.48821 c 1.27797,-1.00525 1.9451,-2.67888 1.9451,-4.87966 0,-3.28293 -1.70592,-5.64444 -4.07745,-5.64444 -1.52103,0 -3.20351,1.42498 -3.67137,3.10948 -1.16731,4.20286 0.62756,8.17941 3.69188,8.17941 0.63482,0 1.57022,-0.33875 2.11184,-0.76479 z m 7.99966,2.59515 c -0.25951,-0.17746 -0.41826,-0.69497 -0.35278,-1.15003 0.10972,-0.76247 0.26359,-0.8196 1.96153,-0.72821 1.57902,0.085 1.97147,-0.0298 2.74461,-0.80297 0.88555,-0.88555 0.90032,-0.98491 0.80336,-5.4055 l -0.0988,-4.50337 -1.67569,-0.10753 c -1.59543,-0.10237 -1.67569,-0.15729 -1.67569,-1.14653 v -1.039 h 3.35138 3.35139 v 5.83835 c 0,6.37463 -0.21553,7.28661 -1.99813,8.45461 -1.08972,0.71402 -5.62023,1.13107 -6.4112,0.59018 z m 45.81667,-0.10694 c -3.24036,-0.98526 -4.75904,-3.33646 -4.75904,-7.36787 0,-4.39398 1.70298,-6.67648 5.58957,-7.4917 3.59747,-0.75458 6.96617,0.5874 8.36692,3.33309 2.00873,3.93745 0.7572,9.22335 -2.59311,10.95211 -1.56415,0.8071 -4.88817,1.09618 -6.60434,0.57437 z m 4.74478,-2.48821 c 1.27797,-1.00525 1.9451,-2.67888 1.9451,-4.87966 0,-3.28293 -1.70592,-5.64444 -4.07745,-5.64444 -1.52103,0 -3.20351,1.42498 -3.67137,3.10948 -1.16731,4.20286 0.62756,8.17941 3.69188,8.17941 0.63482,0 1.57022,-0.33875 2.11184,-0.76479 z m 11.29372,2.66176 c -2.86735,-0.7277 -2.99862,-0.82739 -2.99862,-2.27711 0,-0.76106 0.0857,-1.38375 0.19045,-1.38375 0.10474,0 0.82997,0.32626 1.61162,0.72503 3.59457,1.83381 7.95239,0.95962 7.19003,-1.44235 -0.21956,-0.69177 -1.27297,-1.17879 -3.87682,-1.79233 -3.36964,-0.79398 -4.72105,-1.89888 -4.98731,-4.07755 -0.44713,-3.65867 4.60698,-6.01707 9.9262,-4.63187 1.70183,0.44319 1.76784,0.50754 1.87618,1.82925 0.099,1.20822 0.0366,1.33792 -0.52916,1.09888 -3.10474,-1.31179 -5.0218,-1.55379 -6.60268,-0.8335 -1.62572,0.74073 -1.59027,2.43713 0.0639,3.05866 0.52712,0.19806 1.75216,0.5445 2.7223,0.76986 0.97014,0.22537 2.28681,0.65742 2.92595,0.96013 3.01649,1.42865 2.77635,5.59439 -0.41686,7.23138 -1.43416,0.73521 -5.48997,1.17267 -7.0952,0.76527 z M -4.6869049,183.55674 v -7.40833 H 0.42837273 5.5436504 v 1.04556 1.04556 l -3.4395833,0.10097 -3.4395832,0.10097 v 1.76388 1.76389 l 3.2631944,0.10144 3.2631943,0.10143 v 1.03186 1.03185 l -3.2631943,0.10143 -3.2631944,0.10144 -0.1014342,3.26319 -0.1014307,3.2632 h -1.5742637 -1.5742602 z m 16.8532769,1.14653 -0.09633,-6.2618 -2.3812498,-0.10432 c -2.3789251,-0.10421 -2.3812499,-0.10533 -2.3812499,-1.14653 v -1.04221 h 6.5263887 6.526389 v 1.04221 c 0,1.0412 -0.0025,1.04232 -2.38125,1.14653 l -2.38125,0.10432 -0.09633,6.2618 -0.09634,6.26181 H 13.833928 12.262709 Z M 26.249,190.71784 c -0.238108,-0.39116 -3.772017,-13.65875 -3.772017,-14.16153 0,-0.24713 0.614285,-0.4079 1.558541,-0.4079 h 1.55854 l 0.764304,3.43958 c 0.42037,1.89177 0.913962,4.0282 1.096881,4.74761 0.319148,1.25522 0.86977,1.95736 1.242593,1.58454 0.09718,-0.0972 0.707884,-2.16976 1.357115,-4.60573 0.649227,-2.43597 1.282897,-4.59485 1.408151,-4.79752 0.125257,-0.20266 0.926624,-0.36848 1.780819,-0.36848 1.760844,0 1.408158,-0.6916 3.117779,6.11385 0.479164,1.9074 0.966897,3.56369 1.083846,3.68064 0.498966,0.49897 1.040226,-0.81962 2.086571,-5.08324 l 1.112916,-4.53486 1.499305,-0.10848 c 1.258521,-0.0911 1.495009,-0.006 1.472561,0.52917 -0.01471,0.3507 -0.848518,3.65389 -1.852908,7.34042 l -1.826165,6.70278 H 37.99838 36.058928 l -1.245634,-4.40699 c -1.670442,-5.90995 -1.975333,-5.91891 -3.538742,-0.10402 l -1.212847,4.51101 -1.820545,0.10553 c -1.001299,0.0581 -1.897771,-0.0213 -1.99216,-0.17638 z m 19.864094,-0.0491 c 0,-0.16297 1.162318,-3.45703 2.582929,-7.32014 l 2.58293,-7.02383 h 2.057904 2.057901 l 2.591111,7.02538 c 1.425112,3.86397 2.591114,7.15803 2.591114,7.32014 0,0.16212 -0.678798,0.29476 -1.508436,0.29476 -1.430203,0 -1.544556,-0.0778 -2.204861,-1.49931 l -0.696426,-1.49931 h -2.822222 -2.822222 l -0.696426,1.49931 c -0.660304,1.42155 -0.774657,1.49931 -2.204861,1.49931 -0.829638,0 -1.508435,-0.13334 -1.508435,-0.29631 z m 9.000994,-5.35649 c 0.341845,-0.55312 -1.228753,-4.93054 -1.76905,-4.93054 -0.540297,0 -2.110895,4.37742 -1.76905,4.93054 0.122753,0.19862 0.918828,0.36113 1.76905,0.36113 0.850223,0 1.646298,-0.16251 1.76905,-0.36113 z m 8.990672,-1.79015 v -7.44295 l 4.674306,0.12603 c 5.069575,0.13667 6.099855,0.47317 6.912987,2.2578 0.841347,1.84655 0.432125,3.35027 -1.454298,5.3439 l -1.071235,1.13211 2.171898,2.80755 c 1.194544,1.54415 2.171897,2.90001 2.171897,3.01303 0,0.29876 -3.28495,0.24175 -3.717134,-0.0645 -0.201161,-0.14255 -1.148786,-1.33645 -2.105833,-2.65313 -1.685297,-2.31856 -2.746146,-3.02825 -3.877631,-2.59406 -0.406513,0.15599 -0.529957,0.82225 -0.529957,2.86027 v 2.65691 h -1.5875 -1.5875 z m 7.600756,-1.18408 c 2.063888,-2.06388 0.33491,-4.3345 -3.054025,-4.01077 -1.180698,0.11278 -1.196668,0.13744 -1.303574,2.01241 -0.150986,2.64809 -0.0093,2.86428 1.877084,2.86428 1.243905,0 1.813416,-0.19881 2.480515,-0.86592 z m 8.979799,1.21869 v -7.40833 h 5.115278 5.115278 v 1.04556 1.04556 l -3.439584,0.10097 -3.439583,0.10097 v 1.5875 1.5875 l 3.263195,0.10143 3.263194,0.10143 v 1.03186 1.03185 l -3.263194,0.10144 -3.263195,0.10143 v 2.29305 2.29306 l 3.439583,0.10097 3.439584,0.10097 v 1.04556 1.04556 h -5.115278 -5.115278 z m 47.624995,0 v -7.40833 l 3.96875,0.008 c 3.13353,0.006 4.27936,0.14877 5.44466,0.67784 2.47361,1.12305 3.2501,3.6838 1.90906,6.29583 -0.92952,1.81049 -2.52968,2.6482 -5.50137,2.88006 l -2.46971,0.19268 -0.10431,2.38125 -0.10431,2.38125 h -1.57138 -1.57139 z m 7.82688,-0.69917 c 0.91387,-1.12857 0.81169,-2.68878 -0.24532,-3.74578 -0.73943,-0.73944 -1.16037,-0.86744 -2.55764,-0.77772 l -1.67253,0.1074 -0.10635,2.25589 c -0.15078,3.1983 -0.0583,3.3347 2.11833,3.12555 1.32488,-0.1273 1.99873,-0.39136 2.46351,-0.96534 z m 7.69535,0.66456 v -7.44295 l 4.6743,0.12603 c 5.06958,0.13667 6.09986,0.47317 6.91299,2.2578 0.84135,1.84655 0.43212,3.35027 -1.4543,5.3439 l -1.07123,1.13211 2.17189,2.80755 c 1.19455,1.54415 2.1719,2.90001 2.1719,3.01303 0,0.29876 -3.28495,0.24175 -3.71713,-0.0645 -0.20116,-0.14255 -1.14879,-1.33645 -2.10584,-2.65313 -1.68529,-2.31856 -2.74614,-3.02825 -3.87763,-2.59406 -0.40651,0.15599 -0.52995,0.82225 -0.52995,2.86027 v 2.65691 h -1.5875 -1.5875 z m 7.60075,-1.18408 c 2.06389,-2.06388 0.33491,-4.3345 -3.05402,-4.01077 -1.1807,0.11278 -1.19667,0.13744 -1.30358,2.01241 -0.15098,2.64809 -0.009,2.86428 1.87709,2.86428 1.2439,0 1.81341,-0.19881 2.48051,-0.86592 z m 38.61313,1.21869 v -7.40833 h 5.11528 5.11528 v 1.04556 1.04556 l -3.43958,0.10097 -3.43959,0.10097 v 1.5875 1.5875 l 3.2632,0.10143 3.26319,0.10143 v 1.03186 1.03185 l -3.26319,0.10144 -3.2632,0.10143 v 2.29305 2.29306 l 3.43959,0.10097 3.43958,0.10097 v 1.04556 1.04556 h -5.11528 -5.11528 z m 17.55884,1.14653 -0.0963,-6.2618 -2.38125,-0.10432 c -2.37892,-0.10421 -2.38125,-0.10533 -2.38125,-1.14653 v -1.04221 h 6.52639 6.52639 v 1.04221 c 0,1.0412 -0.002,1.04232 -2.38125,1.14653 l -2.38125,0.10432 -0.0963,6.2618 -0.0963,6.26181 h -1.57122 -1.57122 z"
         id="path23"
         inkscape:connector-curvature="0" />
    </g>
  </g>
</svg>
